<?xml version="1.0" ?><svg enable-background="new 0 0 512 512" id="Layer_1" version="1.1" viewBox="0 0 512 512" xml:space="preserve" xmlns="http://www.w3.org/2000/svg" xmlns:xlink="http://www.w3.org/1999/xlink"><g><g><path d="M53,391.4h406.5c4.5,0,8.1-3.6,8.1-8.1v-12.7c0-4.5-3.6-8.1-8.1-8.1H53c-4.5,0-8.1,3.6-8.1,8.1v12.7    C45,387.8,48.6,391.4,53,391.4z" fill="#F3BFB3"/><line fill="none" opacity="0.6" stroke="#FFFFFF" stroke-linecap="round" stroke-linejoin="round" stroke-miterlimit="10" stroke-width="6.3595" x1="415" x2="431.3" y1="368.9" y2="368.9"/><path d="    M443.5,368.9h16c0.9,0,1.7,0.8,1.7,1.7v6.3" fill="none" opacity="0.6" stroke="#FFFFFF" stroke-linecap="round" stroke-linejoin="round" stroke-miterlimit="10" stroke-width="6.3595"/><polyline fill="none" opacity="0.1" points="    183.6,383 53.5,383 53.5,375.3   " stroke="#000000" stroke-linecap="round" stroke-linejoin="round" stroke-miterlimit="10" stroke-width="10.5991"/><path d="    M53,391.4h406.5c4.5,0,8.1-3.6,8.1-8.1v-12.7c0-4.5-3.6-8.1-8.1-8.1H53c-4.5,0-8.1,3.6-8.1,8.1v12.7C45,387.8,48.6,391.4,53,391.4    z" fill="none" stroke="#000000" stroke-linecap="round" stroke-linejoin="round" stroke-miterlimit="10" stroke-width="6.3595"/><path d="M454.3,334.6h-396V310c0-36,18.5-66.6,54.1-72.2l0,0c95.4-15,192.5-15,287.9,0l0,0    c35.5,5.6,54.1,36.2,54.1,72.2V334.6z" fill="#F6EDA0"/><path d="    M375.5,240.7c4,0.5,8.1,1.1,12.1,1.7" fill="none" opacity="0.6" stroke="#FFFFFF" stroke-linecap="round" stroke-linejoin="round" stroke-miterlimit="10" stroke-width="6.3595"/><path d="    M399.3,244.1c5.9,0.9,11.9,2.8,17.5,5.8" fill="none" opacity="0.6" stroke="#FFFFFF" stroke-linecap="round" stroke-linejoin="round" stroke-miterlimit="10" stroke-width="6.3595"/><path d="    M454.3,334.6h-396V310c0-36,18.5-66.6,54.1-72.2l0,0c95.4-15,192.5-15,287.9,0l0,0c35.5,5.6,54.1,36.2,54.1,72.2V334.6z" fill="none" stroke="#000000" stroke-linecap="round" stroke-linejoin="round" stroke-miterlimit="10" stroke-width="6.3595"/><path d="M459.6,362.6H53c-4.5,0-8.1-3.6-8.1-8.1v-11.8c0-4.5,3.6-8.1,8.1-8.1h406.5c4.5,0,8.1,3.6,8.1,8.1v11.8    C467.6,359,464,362.6,459.6,362.6z" fill="#FEFFDA"/><line fill="none" opacity="0.1" stroke="#000000" stroke-linecap="round" stroke-linejoin="round" stroke-miterlimit="10" stroke-width="10.5991" x1="226" x2="138.2" y1="354.1" y2="354.1"/><path d="    M459.6,362.6H53c-4.5,0-8.1-3.6-8.1-8.1v-11.8c0-4.5,3.6-8.1,8.1-8.1h406.5c4.5,0,8.1,3.6,8.1,8.1v11.8    C467.6,359,464,362.6,459.6,362.6z" fill="none" stroke="#000000" stroke-linecap="round" stroke-linejoin="round" stroke-miterlimit="10" stroke-width="6.3595"/><g><path d="M436.7,301.7c-34.2,0-61.9,14.7-61.9,32.9h77.7c11.6,0,18.7-13,12.2-22.7     C460.5,305.7,454.4,301.7,436.7,301.7z" fill="#FEFFDA"/><path d="     M459.4,315.5c1.7,2.5,1.8,5.7,0.4,8.4" fill="none" opacity="0.6" stroke="#FFFFFF" stroke-linecap="round" stroke-linejoin="round" stroke-miterlimit="10" stroke-width="6.3595"/><path d="     M436.7,308.1c6.1,0,10.4,0.5,13.6,1.3" fill="none" opacity="0.6" stroke="#FFFFFF" stroke-linecap="round" stroke-linejoin="round" stroke-miterlimit="10" stroke-width="6.3595"/><line fill="none" opacity="0.1" stroke="#000000" stroke-linecap="round" stroke-linejoin="round" stroke-miterlimit="10" stroke-width="10.5991" x1="414.4" x2="393.3" y1="326.2" y2="326.2"/><path d="     M436.7,301.7c-34.2,0-61.9,14.7-61.9,32.9h77.7c11.6,0,18.7-13,12.2-22.7C460.5,305.7,454.4,301.7,436.7,301.7z" fill="none" stroke="#000000" stroke-linecap="round" stroke-linejoin="round" stroke-miterlimit="10" stroke-width="6.3595"/><path d="M75.9,301.7c34.2,0,61.9,14.7,61.9,32.9H60.1c-11.6,0-18.7-13-12.2-22.7     C52.1,305.7,58.2,301.7,75.9,301.7z" fill="#FEFFDA"/><path d="     M83.3,326.2H60.1c-3.3,0-4.9-2.3-5.4-3.3c-0.5-1-1.5-3.5,0.3-6.2" fill="none" opacity="0.1" stroke="#000000" stroke-linecap="round" stroke-linejoin="round" stroke-miterlimit="10" stroke-width="10.5991"/><path d="     M75.9,301.7c34.2,0,61.9,14.7,61.9,32.9H60.1c-11.6,0-18.7-13-12.2-22.7C52.1,305.7,58.2,301.7,75.9,301.7z" fill="none" stroke="#000000" stroke-linecap="round" stroke-linejoin="round" stroke-miterlimit="10" stroke-width="6.3595"/></g><g><rect fill="#AF9585" height="15.6" stroke="#000000" stroke-linecap="round" stroke-linejoin="round" stroke-miterlimit="10" stroke-width="6.3595" width="38.1" x="63.7" y="391.4"/><rect fill="#AF9585" height="15.6" stroke="#000000" stroke-linecap="round" stroke-linejoin="round" stroke-miterlimit="10" stroke-width="6.3595" width="38.1" x="410.8" y="391.4"/></g></g><g><path d="M150.2,332.8c2.1-2.8,1.7-6.7-1-9c0.1-2.5-0.9-5.1-2.9-6.9l0,0c-16.2-15.1-33.9-28.5-52.9-40h0    c-2.3-1.4-5-1.6-7.4-0.9c-2.9-1.9-6.8-1.3-8.9,1.5c-2.1,2.8-1.7,6.7,1,9c-0.1,2.5,0.9,5.1,2.9,6.9l0,0    c16.2,15.1,33.9,28.5,52.9,40l0,0c2.3,1.4,5,1.6,7.4,0.9C144.2,336.2,148.1,335.6,150.2,332.8z" fill="#FFFFFF"/><path d="    M138.8,326.2c-0.1,0-0.1,0-0.2,0c-0.2,0-0.2,0-0.3-0.1c-12-7.3-23.6-15.4-34.5-24.3" fill="none" opacity="0.1" stroke="#000000" stroke-linecap="round" stroke-linejoin="round" stroke-miterlimit="10" stroke-width="10.5991"/><path d="    M150.2,332.8c2.1-2.8,1.7-6.7-1-9c0.1-2.5-0.9-5.1-2.9-6.9l0,0c-16.2-15.1-33.9-28.5-52.9-40h0c-2.3-1.4-5-1.6-7.4-0.9    c-2.9-1.9-6.8-1.3-8.9,1.5c-2.1,2.8-1.7,6.7,1,9c-0.1,2.5,0.9,5.1,2.9,6.9l0,0c16.2,15.1,33.9,28.5,52.9,40l0,0    c2.3,1.4,5,1.6,7.4,0.9C144.2,336.2,148.1,335.6,150.2,332.8z" fill="none" stroke="#000000" stroke-linecap="round" stroke-linejoin="round" stroke-miterlimit="10" stroke-width="6.3595"/><rect fill="#FFDDD3" height="13.4" stroke="#000000" stroke-linecap="round" stroke-linejoin="round" stroke-miterlimit="10" stroke-width="6.3595" transform="matrix(0.7716 0.6361 -0.6361 0.7716 211.0364 -16.1255)" width="14.7" x="120.6" y="279.1"/><path d="M122.4,288.4L122.4,288.4c-10.8,6.2-24.7,2.5-30.9-8.3l-5.3-9.1c-6.2-10.8-2.5-24.7,8.3-30.9l0,0    c10.8-6.2,24.7-2.5,30.9,8.3l5.3,9.1C137,268.3,133.2,282.2,122.4,288.4z" fill="#FFDDD3"/><path d="    M118.2,281.1c-2.2,1.2-4.6,1.9-7.1,1.9c-5.1,0-9.8-2.7-12.3-7.1" fill="none" opacity="0.1" stroke="#000000" stroke-linecap="round" stroke-linejoin="round" stroke-miterlimit="10" stroke-width="10.5991"/><path d="    M122.4,288.4L122.4,288.4c-10.8,6.2-24.7,2.5-30.9-8.3l-5.3-9.1c-6.2-10.8-2.5-24.7,8.3-30.9l0,0c10.8-6.2,24.7-2.5,30.9,8.3    l5.3,9.1C137,268.3,133.2,282.2,122.4,288.4z" fill="none" stroke="#000000" stroke-linecap="round" stroke-linejoin="round" stroke-miterlimit="10" stroke-width="6.3595"/><g><path d="     M248.7,333.1c-0.1,0-0.2,0-0.3,0l-18.2-0.4c-0.1,0-0.2,0-0.4,0c-19.8-0.9-34.4-4.5-51.6-10l-42.1-13.4     c-7.6-2.4-11.8-10.6-9.4-18.2c2.4-7.6,10.6-11.8,18.2-9.4l42.1,13.4c15.3,4.9,27.4,7.9,43.9,8.6l18.1,0.4     c8,0.2,14.3,6.8,14.1,14.8C263,326.8,256.5,333.1,248.7,333.1z" fill="#FFDDD3" stroke="#000000" stroke-linecap="round" stroke-linejoin="round" stroke-miterlimit="10" stroke-width="6.3595"/></g><g><path d="M251.1,329L229,310.3l44.5-52.8c3-3.6,7.5-5.4,12.1-5.1c4.6,0.3,8.8,2.9,11.3,6.8l32,51.8l-19.4,13.5     l-26.7-35.9L251.1,329z" fill="#5EA9BE"/><path d="     M284.6,258.7c0.2,0,0.4,0,0.6,0c2.6,0.2,4.9,1.6,6.3,3.8" fill="none" opacity="0.6" stroke="#FFFFFF" stroke-linecap="round" stroke-linejoin="round" stroke-miterlimit="10" stroke-width="6.3595"/><line fill="none" opacity="0.6" stroke="#FFFFFF" stroke-linecap="round" stroke-linejoin="round" stroke-miterlimit="10" stroke-width="6.3595" x1="297.1" x2="302.1" y1="271.7" y2="279.8"/></g><g><path d="     M251.1,329L229,310.3l44.5-52.8c3-3.6,7.5-5.4,12.1-5.1c4.6,0.3,8.8,2.9,11.3,6.8l32,51.8l-19.4,13.5l-26.7-35.9L251.1,329z" fill="none" stroke="#000000" stroke-linecap="round" stroke-linejoin="round" stroke-miterlimit="10" stroke-width="6.3595"/></g><path d="    M249,306.2l-18.1-0.4c-16.6-0.8-28.7-5.8-43.9-10.7l-42.1-13.4c-7.6-2.4-15.8,1.8-18.2,9.4c-1,3-0.9,6.1,0,8.9    c0.3,2.2,1.4,4.4,3.3,5.9l12.5,9.9l3-3.5l32.7,10.4c17.2,5.5,25.7,9.1,45.5,10c0.1,0,10.4,0.4,10.5,0.4h14.2c0.1,0,0.2,0,0.3,0    c7.8,0,14.3-6.3,14.5-14.1C263.3,310.9,257,306.4,249,306.2z" fill="#B9A6DA" stroke="#000000" stroke-linecap="round" stroke-linejoin="round" stroke-miterlimit="10" stroke-width="6.3595"/><g><polygon fill="#5EA9BE" points="362,333.1 237.1,333.1 237.1,304.1 362,311.7    "/><polyline fill="none" opacity="0.1" points="     289.9,324.6 245.6,324.6 245.6,319.5    " stroke="#000000" stroke-linecap="round" stroke-linejoin="round" stroke-miterlimit="10" stroke-width="10.5991"/><line fill="none" opacity="0.6" stroke="#FFFFFF" stroke-linecap="round" stroke-linejoin="round" stroke-miterlimit="10" stroke-width="6.3595" x1="287.9" x2="297.7" y1="313.6" y2="314.2"/><line fill="none" opacity="0.6" stroke="#FFFFFF" stroke-linecap="round" stroke-linejoin="round" stroke-miterlimit="10" stroke-width="6.3595" x1="309.2" x2="325.5" y1="314.9" y2="315.8"/></g><g><polygon fill="none" points="     362,333.1 237.1,333.1 237.1,304.1 362,311.7    " stroke="#000000" stroke-linecap="round" stroke-linejoin="round" stroke-miterlimit="10" stroke-width="6.3595"/></g><g><path d="     M218.9,314.3l-1.9-1.7l52.8-61.4l1.9,1.7c2.3,2,2.6,5.5,0.6,7.8l-45.6,53.1C224.7,316,221.2,316.2,218.9,314.3z" fill="#E8E8E8" stroke="#000000" stroke-linecap="round" stroke-linejoin="round" stroke-miterlimit="10" stroke-width="6.3595"/></g><path d="    M362,333.1h5.6c3.3,0,6-2.7,6-6l2-28.8c0.2-2.6-1.7-5-4.3-5.3c-0.3,0-0.5,0-0.7,0l0,0c-1.3,0-2.4,0.8-2.8,2l-5.7,16.7V333.1z" fill="#FFDDD3" stroke="#000000" stroke-linecap="round" stroke-linejoin="round" stroke-miterlimit="10" stroke-width="6.3595"/><g><path d="M227.1,299.9c-2.3-4.4-7.8-6-12.2-3.7l-39.7,22.4l-21-16.6l-11.7,13.6l26.2,20.7c1.6,1.3,3.6,1.9,5.6,1.9     c1.5,0,2.9-0.4,4.2-1.1l44.9-25.2C227.8,309.7,229.4,304.2,227.1,299.9z" fill="#FFDDD3"/><path d="     M191.6,320.2l-17.2,9.7c0,0,0,0,0,0c0,0-0.1,0-0.1,0c-0.1,0-0.2,0-0.3-0.1l-12.1-9.6" fill="none" opacity="0.1" stroke="#000000" stroke-linecap="round" stroke-linejoin="round" stroke-miterlimit="10" stroke-width="10.5991"/></g><g><path d="     M227.1,299.9c-2.3-4.4-7.8-6-12.2-3.7l-39.7,22.4l-21-16.6l-11.7,13.6l26.2,20.7c1.6,1.3,3.6,1.9,5.6,1.9c1.5,0,2.9-0.4,4.2-1.1     l44.9-25.2C227.8,309.7,229.4,304.2,227.1,299.9z" fill="none" stroke="#000000" stroke-linecap="round" stroke-linejoin="round" stroke-miterlimit="10" stroke-width="6.3595"/></g><line fill="none" stroke="#000000" stroke-linecap="round" stroke-linejoin="round" stroke-miterlimit="10" stroke-width="6.3595" x1="265.8" x2="243.2" y1="255.7" y2="186.2"/><path d="M93.6,267.8c-0.2-1.1,0.3-2.1,1.2-2.6c2.9-1.6,8.1-4.9,8.7-5.3c6.1-3.7,10.5-8.4,15.3-13.6    c3.1-3.4,4.5-5.8,5.1-7.1c0.4-0.9,0.6-1.8,0.4-2.7c-0.3-1.5-1.1-2.4-2.3-2.5c-1.8-0.3-3.7-0.6-4.1-0.7c-3.2-0.3-6.4-0.3-9.5,0.5    c-3.6,0.9-6.8,2.6-9.9,4.5c-0.3,0.2-2.1,1.6-3.6,3c-0.9,0.8-2.4-0.2-1.9-1.3c0,0,0,0,0,0c0.2-0.3,0.4-0.7,0.6-1    c0.4-0.5-0.1-1.1-0.7-0.9c-0.1,0.1-0.3,0.1-0.4,0.2c-2.7,1.4-4.7,4.9-6.4,7.3c-1.3,1.9-2.4,3.9-3.4,6c-0.8,1.6-3.1,7.2-3.7,7.3    c-0.8,0.1-1.8-0.3-2.3,0.3c-1.1,1.4,1.8,7.3,2.1,8c1.1,2.3,2.9,5.2,5.1,7.2c1.5,1.4,3.2,2.6,4.9,3.8c0,0,0,0,0,0    c2.2,1.5,5.2,0,5.2-2.7c0-0.6,0-1.3-0.1-2.1C94,270.6,93.8,268.9,93.6,267.8z" fill="#AF9585"/><path d="    M110.1,239.9c1.2-0.3,2.6-0.5,4.3-0.5c0.6,0,1.2,0,1.9,0.1" fill="none" opacity="0.6" stroke="#FFFFFF" stroke-linecap="round" stroke-linejoin="round" stroke-miterlimit="10" stroke-width="6.3595"/><path d="    M93.6,267.8c-0.2-1.1,0.3-2.1,1.2-2.6c2.9-1.6,8.1-4.9,8.7-5.3c6.1-3.7,10.5-8.4,15.3-13.6c3.1-3.4,4.5-5.8,5.1-7.1    c0.4-0.9,0.6-1.8,0.4-2.7c-0.3-1.5-1.1-2.4-2.3-2.5c-1.8-0.3-3.7-0.6-4.1-0.7c-3.2-0.3-6.4-0.3-9.5,0.5c-3.6,0.9-6.8,2.6-9.9,4.5    c-0.3,0.2-2.1,1.6-3.6,3c-0.9,0.8-2.4-0.2-1.9-1.3c0,0,0,0,0,0c0.2-0.3,0.4-0.7,0.6-1c0.4-0.5-0.1-1.1-0.7-0.9    c-0.1,0.1-0.3,0.1-0.4,0.2c-2.7,1.4-4.7,4.9-6.4,7.3c-1.3,1.9-2.4,3.9-3.4,6c-0.8,1.6-3.1,7.2-3.7,7.3c-0.8,0.1-1.8-0.3-2.3,0.3    c-1.1,1.4,1.8,7.3,2.1,8c1.1,2.3,2.9,5.2,5.1,7.2c1.5,1.4,3.2,2.6,4.9,3.8c0,0,0,0,0,0c2.2,1.5,5.2,0,5.2-2.7c0-0.6,0-1.3-0.1-2.1    C94,270.6,93.8,268.9,93.6,267.8z" fill="none" stroke="#000000" stroke-linecap="round" stroke-linejoin="round" stroke-miterlimit="10" stroke-width="6.3595"/></g><g><g><g><path d="      M329.8,210.6c0.2-2.1,0-4.5,1.4-6.2c0.3-0.4,0.8-0.8,1.3-0.8c0.7-0.1,1.4,0.5,1.9,1.1c3.6,3.8,7.1,7.7,11.6,10.4      c0.8,0.5,1.5,0.9,2.4,1c1.5,0.2,3-0.7,4-1.8c2.8-3.3,3.1-8.2,3.5-12.3c0.3-3.2,0.5-7.9,4.6-8.4c0.4,0,0.7,0,1.1,0      c10.8,0.6,7.5,33.5-10.7,33.6C338.5,227.3,332.5,217.5,329.8,210.6z" fill="#D9C9B9" stroke="#000000" stroke-linecap="round" stroke-linejoin="round" stroke-miterlimit="10" stroke-width="6.3595"/></g></g><path d="M297.1,153.9c0,0,6.8,16.5,24.7,30c17.9,13.5,16.5,31.6,6.8,39s-37.8,8.3-30.7,0.1    c9.8-11.4-25.9-0.3-28.5-14.9c-2.6-14.6,5.2-53.4,5.2-53.4L297.1,153.9z" fill="#D9C9B9"/><path d="    M303.4,175.2c2.5,3,5.4,6,8.8,9.1" fill="none" opacity="0.6" stroke="#FFFFFF" stroke-linecap="round" stroke-linejoin="round" stroke-miterlimit="10" stroke-width="6.3595"/><path d="    M320.9,191.3c1.5,1.4,2.7,2.7,3.7,4" fill="none" opacity="0.6" stroke="#FFFFFF" stroke-linecap="round" stroke-linejoin="round" stroke-miterlimit="10" stroke-width="6.3595"/><path d="    M297.1,153.9c0,0,6.8,16.5,24.7,30c17.9,13.5,16.5,31.6,6.8,39s-37.8,8.3-30.7,0.1c9.8-11.4-25.9-0.3-28.5-14.9    c-2.6-14.6,5.2-53.4,5.2-53.4L297.1,153.9z" fill="none" stroke="#000000" stroke-linecap="round" stroke-linejoin="round" stroke-miterlimit="10" stroke-width="6.3595"/><g><g><path d="      M279.5,186.9c0.1-15.9,13.1-19.7,15.6,3.4l4.6,28.9c-1.2-3.1-12.4-1.7-20.8-3.5C279.1,206.3,279.4,196.4,279.5,186.9z" fill="#AF9585" stroke="#000000" stroke-linecap="round" stroke-linejoin="round" stroke-miterlimit="10" stroke-width="6.3595"/></g><path d="     M269.3,193.7c-1.3,18.4,3.7,36.3,11.3,33.4c6.7-2.6,4-8,1.1-21c-1.9-8.6-2.3-12.3-2.3-12.3" fill="#D9C9B9" stroke="#000000" stroke-linecap="round" stroke-linejoin="round" stroke-miterlimit="10" stroke-width="6.3595"/><path d="     M297.3,192.2c0,0-2.8,16.4-7.2,21.5c-4.4,5.1-8.7,14,1.5,14.2c8.7,0.2,19.5-22.2,19.5-22.2" fill="#D9C9B9" stroke="#000000" stroke-linecap="round" stroke-linejoin="round" stroke-miterlimit="10" stroke-width="6.3595"/></g><g><path d="     M271.8,120.4c0,0-9-11.7-13.1-10.6c-4.1,1.2-0.5,16.4-0.5,16.4" fill="#D9C9B9" stroke="#000000" stroke-linecap="round" stroke-linejoin="round" stroke-miterlimit="10" stroke-width="6.3595"/><path d="M253.5,150.5c-5.3-22.1,9.6-38.4,23.3-34.6c13.8,3.8,32.9,31,12.1,43.3c-22.1,13.1-31,11.2-38.3-2.1     C248.9,153.9,254,152.5,253.5,150.5z" fill="#D9C9B9"/><path d="     M285.3,129.5c1.5,1.8,2.8,3.7,3.9,5.7" fill="none" opacity="0.6" stroke="#FFFFFF" stroke-linecap="round" stroke-linejoin="round" stroke-miterlimit="10" stroke-width="6.3595"/><path d="     M284.6,151.8c-8.7,5.1-15.1,7.7-19,7.7c-1.2,0-2.9,0-5.4-3.2" fill="none" opacity="0.1" stroke="#000000" stroke-linecap="round" stroke-linejoin="round" stroke-miterlimit="10" stroke-width="10.5991"/><path d="     M253.5,150.5c-5.3-22.1,9.6-38.4,23.3-34.6c13.8,3.8,32.9,31,12.1,43.3c-22.1,13.1-31,11.2-38.3-2.1     C248.9,153.9,254,152.5,253.5,150.5z" fill="none" stroke="#000000" stroke-linecap="round" stroke-linejoin="round" stroke-miterlimit="10" stroke-width="6.3595"/><path d="     M269.7,119.5c0,0,3.1-15.3,7.3-14.6c4.2,0.7,7.4,15.1,7.4,15.1l3.3,2.8" fill="#D9C9B9" stroke="#000000" stroke-linecap="round" stroke-linejoin="round" stroke-miterlimit="10" stroke-width="6.3595"/></g></g></g></svg>