<?xml version="1.0" ?><svg enable-background="new 0 0 512 512" id="Layer_1" version="1.1" viewBox="0 0 512 512" xml:space="preserve" xmlns="http://www.w3.org/2000/svg" xmlns:xlink="http://www.w3.org/1999/xlink"><g><g><g><path d="M94.1,210.5h324.4c8.6,0,15.5,6.9,15.5,15.5v105.3H78.6V226C78.6,217.4,85.5,210.5,94.1,210.5z" fill="#B6CDBD"/><line fill="none" opacity="0.6" stroke="#FFFFFF" stroke-linecap="round" stroke-linejoin="round" stroke-miterlimit="10" stroke-width="6.3595" x1="376.9" x2="390.7" y1="216.8" y2="216.8"/><path d="     M404.5,216.8h14c5,0,9.1,4.1,9.1,9.1v6.2" fill="none" opacity="0.6" stroke="#FFFFFF" stroke-linecap="round" stroke-linejoin="round" stroke-miterlimit="10" stroke-width="6.3595"/><line fill="none" opacity="0.1" stroke="#000000" stroke-linecap="round" stroke-linejoin="round" stroke-miterlimit="10" stroke-width="10.5991" x1="271.9" x2="87.1" y1="322.8" y2="322.8"/><path d="     M94.1,210.5h324.4c8.6,0,15.5,6.9,15.5,15.5v105.3H78.6V226C78.6,217.4,85.5,210.5,94.1,210.5z" fill="none" stroke="#000000" stroke-linecap="round" stroke-linejoin="round" stroke-miterlimit="10" stroke-width="6.3595"/><path d="M436.3,271.8L436.3,271.8c-17.1,0-31,13.9-31,31v28.1H107.2v-28.1c0-17.1-13.9-31-31-31h0     c-17.1,0-31,13.9-31,31v28.1v42.2c0,8.6,6.9,15.5,15.5,15.5h391c8.6,0,15.5-6.9,15.5-15.5v-42.2v-28.1     C467.3,285.6,453.4,271.8,436.3,271.8z" fill="#DDEEDF"/><line fill="none" opacity="0.6" stroke="#FFFFFF" stroke-linecap="round" stroke-linejoin="round" stroke-miterlimit="10" stroke-width="6.3595" x1="369.2" x2="394.6" y1="337.2" y2="337.2"/><line fill="none" opacity="0.6" stroke="#FFFFFF" stroke-linecap="round" stroke-linejoin="round" stroke-miterlimit="10" stroke-width="6.3595" x1="344.9" x2="356.7" y1="337.2" y2="337.2"/><path d="     M84.8,279.6c3.9,1.4,7.2,3.8,9.9,6.8" fill="none" opacity="0.6" stroke="#FFFFFF" stroke-linecap="round" stroke-linejoin="round" stroke-miterlimit="10" stroke-width="6.3595"/><path d="     M458.7,292.5" fill="none" opacity="0.6" stroke="#FFFFFF" stroke-linecap="round" stroke-linejoin="round" stroke-miterlimit="10" stroke-width="6.3595"/><path d="     M436.3,278.1c6.3,0,12,2.3,16.3,6.2" fill="none" opacity="0.6" stroke="#FFFFFF" stroke-linecap="round" stroke-linejoin="round" stroke-miterlimit="10" stroke-width="6.3595"/><path d="     M185.8,380.1h-125c-3.9,0-7-3.1-7-7v-24.7" fill="none" opacity="0.1" stroke="#000000" stroke-linecap="round" stroke-linejoin="round" stroke-miterlimit="10" stroke-width="10.5991"/><path d="     M436.3,271.8L436.3,271.8c-17.1,0-31,13.9-31,31v28.1H107.2v-28.1c0-17.1-13.9-31-31-31h0c-17.1,0-31,13.9-31,31v28.1v42.2     c0,8.6,6.9,15.5,15.5,15.5h391c8.6,0,15.5-6.9,15.5-15.5v-42.2v-28.1C467.3,285.6,453.4,271.8,436.3,271.8z" fill="none" stroke="#000000" stroke-linecap="round" stroke-linejoin="round" stroke-miterlimit="10" stroke-width="6.3595"/><g><rect fill="#AF9585" height="36.8" stroke="#000000" stroke-linecap="round" stroke-linejoin="round" stroke-miterlimit="10" stroke-width="6.3595" width="20.6" x="86.8" y="388.6"/><rect fill="#AF9585" height="36.8" stroke="#000000" stroke-linecap="round" stroke-linejoin="round" stroke-miterlimit="10" stroke-width="6.3595" width="20.6" x="407.3" y="388.6"/></g></g></g><g><path d="    M213,246.2v-19.8h-19.8v19.8h-15.6c-3.7,0-6.7,3-6.7,6.7v72.5h64.5v-72.5c0-3.7-3-6.7-6.7-6.7H213z" fill="#FFDDD3" stroke="#000000" stroke-linecap="round" stroke-linejoin="round" stroke-miterlimit="10" stroke-width="6.3595"/><path d="M203,236.3L203,236.3c-14.5,0-26.2-11.7-26.2-26.2v-12.2c0-14.5,11.7-26.2,26.2-26.2h0    c14.5,0,26.2,11.7,26.2,26.2v12.2C229.3,224.5,217.5,236.3,203,236.3z" fill="#FFDDD3"/><path d="    M203,227.8c-9.8,0-17.7-8-17.7-17.7" fill="none" opacity="0.1" stroke="#000000" stroke-linecap="round" stroke-linejoin="round" stroke-miterlimit="10" stroke-width="10.5991"/><path d="    M203,236.3L203,236.3c-14.5,0-26.2-11.7-26.2-26.2v-12.2c0-14.5,11.7-26.2,26.2-26.2h0c14.5,0,26.2,11.7,26.2,26.2v12.2    C229.3,224.5,217.5,236.3,203,236.3z" fill="none" stroke="#000000" stroke-linecap="round" stroke-linejoin="round" stroke-miterlimit="10" stroke-width="6.3595"/><path d="M219.7,189.5c-1.1-1.1-2.7-1.4-4.1-0.8c-3.4,1.5-9.4,3.8-10.1,4c-7.7,3.1-15,4.3-23.3,4.8    c-2.9,0.2-5.7-0.1-8.5-0.5c-0.8-0.1-1.6-0.3-2.2-0.7c-1.7-1.1-1.9-3.7-1.2-5.6c1.5-4,5.1-8.3,8.4-10.9c3.3-2.6,6.9-4.4,10.7-5.9    c0.4-0.2,2.9-0.8,5.1-1.3c1.4-0.3,1.5-2.3,0.1-2.6c-0.4-0.1-0.9-0.1-1.4-0.1c-0.7,0-0.9-0.8-0.3-1.2c0.1-0.1,0.3-0.2,0.4-0.2    c3.1-1.5,7.6-1,10.9-0.8c2.6,0.1,5.1,0.4,7.6,0.9c1.9,0.4,8.6,2,9.1,1.6c0.6-0.6,0.9-1.9,1.8-1.9c2,0,5.4,6.5,5.8,7.2    c1.3,2.5,2.7,6.1,3.1,9.5c0.3,2.3,0.2,4.6,0.1,7c-0.1,3-3.5,4.6-5.9,2.9c-0.6-0.4-1.2-0.9-1.9-1.4    C221.8,191.7,220.5,190.4,219.7,189.5z" fill="#AF9585"/><path d="    M220.4,176.5c0.5,0,0.9,0,1.3-0.1c0.4,0.6,0.7,1.2,1.1,2" fill="none" opacity="0.6" stroke="#FFFFFF" stroke-linecap="round" stroke-linejoin="round" stroke-miterlimit="10" stroke-width="6.3595"/><path d="    M202.3,185c-6,2.5-12.2,3.7-20.6,4.2c-0.2,0-0.4,0-0.6,0" fill="none" opacity="0.1" stroke="#000000" stroke-linecap="round" stroke-linejoin="round" stroke-miterlimit="10" stroke-width="10.5991"/><path d="M236.3,418h-31.4l-1.8-85.9c-0.2-9.8,7.7-12.1,17.5-12.1h0c9.8,0,17.7,2.3,17.5,12.1L236.3,418z" fill="#B9A6DA"/><line fill="none" opacity="0.1" stroke="#000000" stroke-linecap="round" stroke-linejoin="round" stroke-miterlimit="10" stroke-width="10.5991" x1="212.9" x2="212.4" y1="396.5" y2="373"/><path d="    M236.3,418h-31.4l-1.8-85.9c-0.2-9.8,7.7-12.1,17.5-12.1h0c9.8,0,17.7,2.3,17.5,12.1L236.3,418z" fill="none" stroke="#000000" stroke-linecap="round" stroke-linejoin="round" stroke-miterlimit="10" stroke-width="6.3595"/><path d="    M208.5,416h24.2c2.3,0,4.2,1.9,4.2,4.2v5.1h-32.7v-5.1C204.3,417.9,206.1,416,208.5,416z" fill="#FFDDD3" stroke="#000000" stroke-linecap="round" stroke-linejoin="round" stroke-miterlimit="10" stroke-width="6.3595"/><path d="    M219.7,189.5c-1.1-1.1-2.7-1.4-4.1-0.8c-3.4,1.5-9.4,3.8-10.1,4c-7.7,3.1-15,4.3-23.3,4.8c-2.9,0.2-5.7-0.1-8.5-0.5    c-0.8-0.1-1.6-0.3-2.2-0.7c-1.7-1.1-1.9-3.7-1.2-5.6c1.5-4,5.1-8.3,8.4-10.9c3.3-2.6,6.9-4.4,10.7-5.9c0.4-0.2,2.9-0.8,5.1-1.3    c1.4-0.3,1.5-2.3,0.1-2.6c-0.4-0.1-0.9-0.1-1.4-0.1c-0.7,0-0.9-0.8-0.3-1.2c0.1-0.1,0.3-0.2,0.4-0.2c3.1-1.5,7.6-1,10.9-0.8    c2.6,0.1,5.1,0.4,7.6,0.9c1.9,0.4,8.6,2,9.1,1.6c0.6-0.6,0.9-1.9,1.8-1.9c2,0,5.4,6.5,5.8,7.2c1.3,2.5,2.7,6.1,3.1,9.5    c0.3,2.3,0.2,4.6,0.1,7c-0.1,3-3.5,4.6-5.9,2.9c-0.6-0.4-1.2-0.9-1.9-1.4C221.8,191.7,220.5,190.4,219.7,189.5z" fill="none" stroke="#000000" stroke-linecap="round" stroke-linejoin="round" stroke-miterlimit="10" stroke-width="6.3595"/><path d="    M236.2,248.5c-2.1-1.7-4.6-2.4-7.1-2.3c-0.2,0-0.3,0-0.5,0H213c0,5.5-4.4,9.9-9.9,9.9c-5.5,0-9.9-4.4-9.9-9.9h-15.6    c-0.2,0-0.3,0-0.5,0c-2.5-0.1-5,0.6-7.1,2.3c-0.4,0.3-9.3,7.6-17.9,17.4l15,14.4c0,0,0.1-0.1,0.1-0.1c1.2-1.4,2.4-2.7,3.7-4v49.3    h64.5v-49.3c1.2,1.3,2.4,2.6,3.7,4c0,0,0.1,0.1,0.1,0.1l15-14.4C245.4,256.1,236.5,248.8,236.2,248.5z" fill="#5EA9BE" stroke="#000000" stroke-linecap="round" stroke-linejoin="round" stroke-miterlimit="10" stroke-width="6.3595"/><g><g><path d="M198.5,305.2c-1.9-5.4-7.8-8.3-13.2-6.4c-0.1,0-7,2.4-14.9,3.7c-4,0.6-7.9,1.9-12,2.1      c-0.5,0-1,0-1.5-0.2c-0.7-0.3-1.1-1.1-1.3-1.8c-1-4,0.9-7.7,2.8-11c2.5-4.1,5.5-7.8,8.6-11.4l-15-14.4c-0.1,0.1-0.2,0.2-0.3,0.4      c-13.4,15.2-18.9,28.1-16.7,39.2c1.2,6.4,4.8,11.4,10.4,14.6c5,2.9,11.1,3.9,17.3,3.9c12.8,0,25.9-4.3,29.4-5.5      C197.5,316.6,200.4,310.6,198.5,305.2z" fill="#FFDDD3"/></g><g><path d="      M198.5,305.2c-1.9-5.4-7.8-8.3-13.2-6.4c-0.1,0-7,2.4-14.9,3.7c-4,0.6-7.9,1.9-12,2.1c-0.5,0-1,0-1.5-0.2      c-0.7-0.3-1.1-1.1-1.3-1.8c-1-4,0.9-7.7,2.8-11c2.5-4.1,5.5-7.8,8.6-11.4l-15-14.4c-0.1,0.1-0.2,0.2-0.3,0.4      c-13.4,15.2-18.9,28.1-16.7,39.2c1.2,6.4,4.8,11.4,10.4,14.6c5,2.9,11.1,3.9,17.3,3.9c12.8,0,25.9-4.3,29.4-5.5      C197.5,316.6,200.4,310.6,198.5,305.2z" fill="#FFDDD3" stroke="#000000" stroke-linecap="round" stroke-linejoin="round" stroke-miterlimit="10" stroke-width="6.3595"/><path d="      M162.7,315.5L162.7,315.5c-5.5,0-10-0.9-13.1-2.7c-3.4-2-5.5-5-6.3-8.9" fill="none" opacity="0.1" stroke="#000000" stroke-linecap="round" stroke-linejoin="round" stroke-miterlimit="10" stroke-width="10.5991"/></g><g><path d="M207.6,305.2c1.9-5.4,7.8-8.3,13.2-6.4c0.1,0,7,2.4,14.9,3.7c4,0.6,7.9,1.9,12,2.1c0.5,0,1,0,1.5-0.2      c0.7-0.3,1.1-1.1,1.3-1.8c1-4-0.9-7.7-2.8-11c-2.5-4.1-5.5-7.8-8.6-11.4l15-14.4c0.1,0.1,0.2,0.2,0.3,0.4      c13.4,15.2,18.9,28.1,16.7,39.2c-1.2,6.4-4.8,11.4-10.4,14.6c-5,2.9-11.1,3.9-17.3,3.9c-12.8,0-25.9-4.3-29.4-5.5      C208.6,316.6,205.7,310.6,207.6,305.2z" fill="#FFDDD3"/><path d="      M255.5,277.8c0.7,0.9,1.3,1.8,1.9,2.7" fill="none" opacity="0.6" stroke="#FFFFFF" stroke-linecap="round" stroke-linejoin="round" stroke-miterlimit="10" stroke-width="6.3595"/><path d="      M262.9,290.2c1.2,2.9,1.9,5.6,2.2,8.2" fill="none" opacity="0.6" stroke="#FFFFFF" stroke-linecap="round" stroke-linejoin="round" stroke-miterlimit="10" stroke-width="6.3595"/></g><g><path d="      M207.6,305.2c1.9-5.4,7.8-8.3,13.2-6.4c0.1,0,7,2.4,14.9,3.7c4,0.6,7.9,1.9,12,2.1c0.5,0,1,0,1.5-0.2c0.7-0.3,1.1-1.1,1.3-1.8      c1-4-0.9-7.7-2.8-11c-2.5-4.1-5.5-7.8-8.6-11.4l15-14.4c0.1,0.1,0.2,0.2,0.3,0.4c13.4,15.2,18.9,28.1,16.7,39.2      c-1.2,6.4-4.8,11.4-10.4,14.6c-5,2.9-11.1,3.9-17.3,3.9c-12.8,0-25.9-4.3-29.4-5.5C208.6,316.6,205.7,310.6,207.6,305.2z" fill="none" stroke="#000000" stroke-linecap="round" stroke-linejoin="round" stroke-miterlimit="10" stroke-width="6.3595"/></g></g><path d="M246.5,321.9h-87v-52c0-1.9,1.5-3.4,3.4-3.4h80.2c1.9,0,3.4,1.5,3.4,3.4V321.9z" fill="#E8E8E8"/><polyline fill="none" opacity="0.6" points="    231.2,273 240.2,273 240.2,277.8   " stroke="#FFFFFF" stroke-linecap="round" stroke-linejoin="round" stroke-miterlimit="10" stroke-width="6.3595"/><line fill="none" opacity="0.6" stroke="#FFFFFF" stroke-linecap="round" stroke-linejoin="round" stroke-miterlimit="10" stroke-width="6.3595" x1="215.5" x2="220" y1="273" y2="273"/><polyline fill="none" opacity="0.1" points="    191.9,313.4 168,313.4 168,304   " stroke="#000000" stroke-linecap="round" stroke-linejoin="round" stroke-miterlimit="10" stroke-width="10.5991"/><path d="    M246.5,321.9h-87v-52c0-1.9,1.5-3.4,3.4-3.4h80.2c1.9,0,3.4,1.5,3.4,3.4V321.9z" fill="none" stroke="#000000" stroke-linecap="round" stroke-linejoin="round" stroke-miterlimit="10" stroke-width="6.3595"/><g><path d="M260.5,323.7v30.1l-85.9,2.4c-9.8,0.2-12.1-7.7-12.1-17.5v0c0-9.8,2.3-17.7,12.1-17.5L260.5,323.7z" fill="#B9A6DA"/><polyline fill="none" opacity="0.6" points="     240.2,329.5 254.2,329.9 254.2,338.6    " stroke="#FFFFFF" stroke-linecap="round" stroke-linejoin="round" stroke-miterlimit="10" stroke-width="6.3595"/><path d="     M208.4,346.8l-34.1,1c-1.4,0-3.3,0-3.3-9" fill="none" opacity="0.1" stroke="#000000" stroke-linecap="round" stroke-linejoin="round" stroke-miterlimit="10" stroke-width="10.5991"/><path d="     M260.5,323.7v30.1l-85.9,2.4c-9.8,0.2-12.1-7.7-12.1-17.5v0c0-9.8,2.3-17.7,12.1-17.5L260.5,323.7z" fill="none" stroke="#000000" stroke-linecap="round" stroke-linejoin="round" stroke-miterlimit="10" stroke-width="6.3595"/><path d="     M260.6,335.1v24.2c0,2.3,1.9,4.2,4.2,4.2h5.1v-32.7h-5.1C262.5,330.9,260.6,332.8,260.6,335.1z" fill="#FFDDD3" stroke="#000000" stroke-linecap="round" stroke-linejoin="round" stroke-miterlimit="10" stroke-width="6.3595"/></g><circle cx="203" cy="295.2" fill="#FFFFFF" r="5.4" stroke="#000000" stroke-linecap="round" stroke-linejoin="round" stroke-miterlimit="10" stroke-width="6.3595"/></g><g><g><g><path d="      M356.7,192.3c0.2-2.1,0-4.5,1.4-6.2c0.3-0.4,0.8-0.8,1.3-0.8c0.7-0.1,1.4,0.5,1.9,1.1c3.6,3.8,7.1,7.7,11.6,10.4      c0.8,0.5,1.5,0.9,2.4,1c1.5,0.2,3-0.7,4-1.8c2.8-3.3,3.1-8.2,3.5-12.3c0.3-3.2,0.5-7.9,4.6-8.4c0.4,0,0.7,0,1.1,0      c10.8,0.6,7.5,33.5-10.7,33.6C365.4,208.9,359.4,199.2,356.7,192.3z" fill="#D9C9B9" stroke="#000000" stroke-linecap="round" stroke-linejoin="round" stroke-miterlimit="10" stroke-width="6.3595"/></g></g><path d="M324,135.5c0,0,6.8,16.5,24.7,30c17.9,13.5,16.5,31.6,6.8,39c-9.7,7.4-37.8,8.3-30.7,0.1    c9.8-11.4-25.9-0.3-28.5-14.9c-2.6-14.6,5.2-53.4,5.2-53.4L324,135.5z" fill="#D9C9B9"/><path d="    M330.3,156.8c2.5,3,5.4,6,8.8,9.1" fill="none" opacity="0.6" stroke="#FFFFFF" stroke-linecap="round" stroke-linejoin="round" stroke-miterlimit="10" stroke-width="6.3595"/><path d="    M347.8,173c1.5,1.4,2.7,2.7,3.7,4" fill="none" opacity="0.6" stroke="#FFFFFF" stroke-linecap="round" stroke-linejoin="round" stroke-miterlimit="10" stroke-width="6.3595"/><path d="    M324,135.5c0,0,6.8,16.5,24.7,30c17.9,13.5,16.5,31.6,6.8,39c-9.7,7.4-37.8,8.3-30.7,0.1c9.8-11.4-25.9-0.3-28.5-14.9    c-2.6-14.6,5.2-53.4,5.2-53.4L324,135.5z" fill="none" stroke="#000000" stroke-linecap="round" stroke-linejoin="round" stroke-miterlimit="10" stroke-width="6.3595"/><g><g><path d="      M306.3,168.5c0.1-15.9,13.1-19.7,15.6,3.4l4.6,28.9c-1.2-3.1-12.4-1.7-20.8-3.5C306,187.9,306.3,178.1,306.3,168.5z" fill="#AF9585" stroke="#000000" stroke-linecap="round" stroke-linejoin="round" stroke-miterlimit="10" stroke-width="6.3595"/></g><path d="     M296.2,175.4c-1.3,18.4,3.7,36.3,11.3,33.4c6.7-2.6,4-8,1.1-21c-1.9-8.6-2.3-12.3-2.3-12.3" fill="#D9C9B9" stroke="#000000" stroke-linecap="round" stroke-linejoin="round" stroke-miterlimit="10" stroke-width="6.3595"/><path d="     M324.2,173.9c0,0-2.8,16.4-7.2,21.5c-4.4,5.1-8.7,14,1.5,14.2c8.7,0.2,19.5-22.2,19.5-22.2" fill="#D9C9B9" stroke="#000000" stroke-linecap="round" stroke-linejoin="round" stroke-miterlimit="10" stroke-width="6.3595"/></g><g><path d="     M298.7,102.1c0,0-9-11.7-13.1-10.6c-4.1,1.2-0.5,16.4-0.5,16.4" fill="#D9C9B9" stroke="#000000" stroke-linecap="round" stroke-linejoin="round" stroke-miterlimit="10" stroke-width="6.3595"/><path d="M280.4,132.1c-5.3-22.1,9.6-38.4,23.3-34.6c13.8,3.8,32.9,31,12.1,43.3c-22.1,13.1-31,11.2-38.3-2.1     C275.7,135.6,280.9,134.2,280.4,132.1z" fill="#D9C9B9"/><path d="     M312.2,111.1c1.5,1.8,2.8,3.7,3.9,5.7" fill="none" opacity="0.6" stroke="#FFFFFF" stroke-linecap="round" stroke-linejoin="round" stroke-miterlimit="10" stroke-width="6.3595"/><path d="     M311.5,133.5c-8.7,5.1-15.1,7.7-19,7.7c-1.2,0-2.9,0-5.4-3.2" fill="none" opacity="0.1" stroke="#000000" stroke-linecap="round" stroke-linejoin="round" stroke-miterlimit="10" stroke-width="10.5991"/><path d="     M280.4,132.1c-5.3-22.1,9.6-38.4,23.3-34.6c13.8,3.8,32.9,31,12.1,43.3c-22.1,13.1-31,11.2-38.3-2.1     C275.7,135.6,280.9,134.2,280.4,132.1z" fill="none" stroke="#000000" stroke-linecap="round" stroke-linejoin="round" stroke-miterlimit="10" stroke-width="6.3595"/><path d="     M296.6,101.2c0,0,3.1-15.3,7.3-14.6c4.2,0.7,7.4,15.1,7.4,15.1l3.3,2.8" fill="#D9C9B9" stroke="#000000" stroke-linecap="round" stroke-linejoin="round" stroke-miterlimit="10" stroke-width="6.3595"/></g></g></g></svg>