<?xml version="1.0" ?><svg id="Layer_1_1_" style="enable-background:new 0 0 64 64;" version="1.1" viewBox="0 0 64 64" xml:space="preserve" xmlns="http://www.w3.org/2000/svg" xmlns:xlink="http://www.w3.org/1999/xlink"><g><g><path d="M31,24h-8c-1.105,0-2,0.895-2,2v2h12v-2C33,24.895,32.105,24,31,24z" style="fill:#8C95A4;"/></g><g><rect height="2" style="fill:#798699;" width="12" x="21" y="26"/></g><g><path d="M38.447,25.106L37,28H4c-1.105,0-2,0.895-2,2v30c0,1.105,0.895,2,2,2h56c1.105,0,2-0.895,2-2V26    c0-1.105-0.895-2-2-2H40.236C39.479,24,38.786,24.428,38.447,25.106z" style="fill:#8C95A4;"/></g><g><path d="M2,59v1c0,1.105,0.895,2,2,2h56c1.105,0,2-0.895,2-2v-1H2z" style="fill:#798699;"/></g><g><rect height="18" style="fill:#ECECEC;" width="18" x="40" y="40"/></g><g><rect height="18" style="fill:#ECECEC;" width="30" x="6" y="40"/></g><g><rect height="6" style="fill:#798699;" width="18" x="12" y="52"/></g><g><rect height="4" style="fill:#798699;" width="6" x="6" y="32"/></g><g><rect height="4" style="fill:#92E0C0;" width="6" x="40" y="32"/></g><g><rect height="4" style="fill:#FBC3C6;" width="6" x="46" y="32"/></g><g><rect height="4" style="fill:#FCD770;" width="6" x="52" y="32"/></g><g><rect height="4" style="fill:#ECECEC;" width="18" x="18" y="32"/></g><g><rect height="6" style="fill:#ECECEC;" width="6" x="56" y="4"/></g><g><rect height="6" style="fill:#B6C1CE;" width="3" x="56" y="4"/></g><g><polygon points="56,2 50,2 48,4 44,4 44,10 48,10 50,12 56,12   " style="fill:#8C95A4;"/></g><g><path d="M60,23H40.236c-1.143,0-2.171,0.635-2.683,1.658L36.382,27H34v-1c0-1.654-1.346-3-3-3h-3v-1c0-2.757-2.243-5-5-5H6    c-1.654,0-3-1.346-3-3v-3c0-1.654,1.346-3,3-3h9c0.552,0,1-0.448,1-1V5c0-0.552-0.448-1-1-1s-1,0.448-1,1v1H6    c-2.757,0-5,2.243-5,5v3c0,2.757,2.243,5,5,5h17c1.654,0,3,1.346,3,3v1h-3c-1.654,0-3,1.346-3,3v1H4c-1.654,0-3,1.346-3,3v30    c0,1.654,1.346,3,3,3h56c1.654,0,3-1.346,3-3V26C63,24.346,61.654,23,60,23z M22,26c0-0.551,0.449-1,1-1h8c0.551,0,1,0.449,1,1v1    H22V26z M61,60c0,0.551-0.449,1-1,1H4c-0.551,0-1-0.449-1-1V30c0-0.551,0.449-1,1-1h33c0.379,0,0.725-0.214,0.895-0.553    l1.447-2.895C39.512,25.212,39.855,25,40.236,25H60c0.551,0,1,0.449,1,1V60z"/><circle cx="44" cy="28" r="1"/><circle cx="50" cy="28" r="1"/><circle cx="56" cy="28" r="1"/><path d="M58,39H40c-0.552,0-1,0.448-1,1v18c0,0.552,0.448,1,1,1h18c0.552,0,1-0.448,1-1V40C59,39.448,58.552,39,58,39z M47,51v-4    h4v4H47z M51,53v4h-4v-4H51z M41,47h4v4h-4V47z M47,45v-4h4v4H47z M53,47h4v4h-4V47z M57,45h-4v-4h4V45z M45,41v4h-4v-4H45z     M41,53h4v4h-4V53z M53,57v-4h4v4H53z"/><path d="M58,31H40c-0.552,0-1,0.448-1,1v4c0,0.552,0.448,1,1,1h18c0.552,0,1-0.448,1-1v-4C59,31.448,58.552,31,58,31z M51,33v2h-4    v-2H51z M41,33h4v2h-4V33z M57,35h-4v-2h4V35z"/><path d="M36,39H6c-0.552,0-1,0.448-1,1v18c0,0.552,0.448,1,1,1h30c0.552,0,1-0.448,1-1V40C37,39.448,36.552,39,36,39z M7,47h4v4H7    V47z M13,47h4v4h-4V47z M23,45h-4v-4h4V45z M25,41h4v4h-4V41z M19,51v-4h4v4H19z M17,45h-4v-4h4V45z M29,53v4H13v-4H29z M25,51v-4    h4v4H25z M31,47h4v4h-4V47z M35,45h-4v-4h4V45z M11,41v4H7v-4H11z M7,53h4v4H7V53z M31,57v-4h4v4H31z"/><path d="M6,37h6c0.552,0,1-0.448,1-1v-4c0-0.552-0.448-1-1-1H6c-0.552,0-1,0.448-1,1v4C5,36.552,5.448,37,6,37z M7,33h4v2H7V33z"/><path d="M36,31H18c-0.552,0-1,0.448-1,1v4c0,0.552,0.448,1,1,1h18c0.552,0,1-0.448,1-1v-4C37,31.448,36.552,31,36,31z M29,33v2h-4    v-2H29z M19,33h4v2h-4V33z M35,35h-4v-2h4V35z"/><path d="M62,3h-5V2c0-0.552-0.448-1-1-1h-6c-0.265,0-0.52,0.105-0.707,0.293L47.586,3H44c-0.552,0-1,0.448-1,1v2H31    c-0.552,0-1,0.448-1,1v2c0,0.552,0.448,1,1,1s1-0.448,1-1V8h11v2c0,0.552,0.448,1,1,1h3.586l1.707,1.707    C49.48,12.895,49.735,13,50,13h6c0.552,0,1-0.448,1-1v-1h5c0.552,0,1-0.448,1-1V4C63,3.448,62.552,3,62,3z M55,11h-4.586    l-1.707-1.707C48.52,9.105,48.265,9,48,9h-3V5h3c0.265,0,0.52-0.105,0.707-0.293L50.414,3H55V11z M61,9h-4V5h4V9z"/><path d="M19,10c0.552,0,1-0.448,1-1V5c0-0.552-0.448-1-1-1s-1,0.448-1,1v4C18,9.552,18.448,10,19,10z"/><path d="M23,10c0.552,0,1-0.448,1-1V5c0-0.552-0.448-1-1-1s-1,0.448-1,1v4C22,9.552,22.448,10,23,10z"/><path d="M27,10c0.552,0,1-0.448,1-1V5c0-0.552-0.448-1-1-1s-1,0.448-1,1v4C26,9.552,26.448,10,27,10z"/></g></g></svg>