<svg width="35" height="35" viewBox="0 0 35 35" fill="none" xmlns="http://www.w3.org/2000/svg">
<path d="M17.5002 0C7.85027 0 0 7.85058 0 17.5C0.000698206 27.1498 7.85132 35 17.5009 35C27.1501 35 35 27.1498 35 17.5C35 7.85058 27.1497 0 17.5002 0ZM17.5009 33.6037C8.62179 33.6037 1.39711 26.38 1.39641 17.5C1.39641 8.62032 8.62039 1.39634 17.5002 1.39634C26.3796 1.39634 33.6036 8.62032 33.6036 17.5C33.6036 26.38 26.38 33.6037 17.5009 33.6037ZM22.5646 19.2168L18.1991 22.9785V10.498C18.1991 10.1127 17.8863 9.79988 17.5009 9.79988C17.1155 9.79988 16.8027 10.1127 16.8027 10.498V22.9785L12.4364 19.2168C12.1442 18.9651 11.703 18.9979 11.4516 19.2901C11.2003 19.5823 11.2327 20.0235 11.5249 20.2749L17.5009 25.4232L23.4761 20.2749C23.7683 20.0228 23.8011 19.5823 23.5491 19.2901C23.2977 18.9979 22.8568 18.9651 22.5646 19.2168Z" fill="#FEFEFE"/>
</svg>
