<?xml version="1.0" ?><svg style="enable-background:new 0 0 5984.956 5984.956;" version="1.1" viewBox="0 0 5984.956 5984.956" xml:space="preserve" xmlns="http://www.w3.org/2000/svg" xmlns:xlink="http://www.w3.org/1999/xlink"><g id="_x31_2-Delivery_Man"><g><g><circle cx="2992.478" cy="2992.478" r="2992.478" style="fill:#FFD400;"/></g><g><path d="M3913.349,2709.173c-20.072-60.246-80.455-70.826-122.249-42.319     c-14.918-0.283-30.181,3.634-44.49,12.927c-55.216,35.86-94.336,84.029-137.254,133.144     c-40.904,46.812-82.267,93.302-123.752,139.602c-85.128,95.013-174.717,185.501-266.884,273.652     c-90.129,86.2-183.122,169.2-279.872,247.92c-84.199,68.507-199.427,165.203-198.602,284.96     c-0.993,1.692-1.954,3.419-2.754,5.307c-23.793,56.168-18.263,109.41-15.113,169.032c3.09,58.49,8.691,116.765,10.712,175.338     c3.96,114.75-0.393,229.426-9.571,343.82c-18.26,227.553-67.981,451.408-144.013,666.642     c-19.576,55.413,17.556,118.346,69.237,140.251c22.565,19.293,52.334,31.167,84.417,34.555     c336.959,35.58,673.921,71.141,1010.893,106.616c72.671,7.65,128.632-66.442,131.306-131.306     c13.743-333.249,22.212-666.672,31.942-1000.06c9.63-329.969,21.236-660.336,22.574-990.442     c0.377-92.956,0.741-185.909,1.302-278.862C3931.76,2904.048,3944.052,2801.316,3913.349,2709.173z" style="fill:#C6A875;"/></g><g><path d="M3941.779,4813.936c-12.431-4.371-24.298-4.935-35.216-2.686     c-9.411-1.135-19.144-1.278-29.061-0.405c-66.339,89.415-183.368,130.297-289.823,148.997     c-149.858,26.327-298.757,29.238-448.756,2.179c-138.793-25.039-314.733-74.637-407.804-187.574     c-44.595-54.116-70.735-117.475-83.252-184.116c-173.937-42.23-359.91-27.753-533.709,7.789     c-196.568,40.197-387.416,109.377-568.303,195.58c-63.361,30.197-125.201,63.278-185.503,98.915     c-35.097,17.788-69.802,36.288-104.004,55.607c-91.873,51.892-185.468,109.65-247.028,193.491     c-9.817,8.199-19.598,16.447-29.308,24.777c-7.762,6.659-14.108,14.369-19.345,22.702     c533.637,493.819,1247.41,795.765,2031.81,795.765c686.844,0,1319.513-231.56,1824.559-620.652     C4565.778,5123.108,4274.727,4930.938,3941.779,4813.936z" style="fill:#1D3FBC;"/></g><g><path d="M3931.177,2999.949c0.348-57.01,4.769-116.424,1.901-174.602     c-25.291-62.11-95.353-72.701-144.222-42.332c-17.791-0.308-35.996,3.949-53.062,14.046     c-65.853,38.966-112.51,91.307-163.697,144.677c-48.784,50.866-98.118,101.384-147.593,151.694     c-101.531,103.243-208.38,201.568-318.301,297.355c-107.493,93.666-218.402,183.855-333.792,269.393     c-3.519,2.607-7.152,5.322-10.753,8.004c-13.524,28.588-21.632,58.901-21.413,90.874c-0.993,1.692-1.955,3.42-2.754,5.308     c-23.792,56.167-18.265,109.409-15.114,169.032c2.046,38.714,5.131,77.339,7.611,116.014     c156.451,93.177,313.738,185.115,476.356,269.237c163.605,84.633,335.253,154.063,501.196,234.535     c62.865,30.484,125.744,60.969,188.956,90.844c3.636-124.923,7.16-249.85,10.805-374.773     c9.629-329.969,21.236-660.336,22.574-990.441C3930.253,3185.856,3930.618,3092.902,3931.177,2999.949z" style="fill:#BC9661;"/></g><g><path d="M4292.162,2355.21c-27.491-119.859-140.029-203.81-257.501-223.051     c-79.552-13.032-157.547-0.937-231.976,24.591c12.151-194.359,29.179-388.348,45.198-582.466     c3.033-36.764-29.643-78.08-65.347-85.832c-338.395-73.469-681.767-119.991-1028.05-131.53     c-171.934-5.729-344.156-3.294-515.853,7.421c-169.202,10.562-354.191,19.069-513.578,77.679     c-50.277,18.491-62.271,74.191-39.328,109.905c-81.742,97.755-131.433,225.358-177.277,341.316     c-57.053,144.31-101.674,292.579-134.715,444.192c-65.729,301.601-114.568,642.839,6.061,937.157     c19.875,48.49,43.296,94.497,69.829,138.057c116.914,243.028,322.927,419.234,572.138,523.186     c287.494,119.92,606.259,124.901,910.875,84.008c147.205-19.762,290.135-50.177,425.454-113.31     c131.56-61.381,242.466-161.571,322.13-282.491c167.763-254.649,181.532-567.616,172.897-865.066     c97.802-0.46,196.49-13.972,279.858-66.378C4245.606,2621.798,4323.116,2490.18,4292.162,2355.21z" style="fill:#C6A875;"/></g><g><path d="M1973.343,2464.101c-14.02-16.553-40.557-21.542-60.611-16.02     c-22.889,6.303-34.979,22.691-43.509,43.51c-22.003,53.7,9.197,180.699,87.721,159.119     C2035.436,2629.141,2012.41,2510.229,1973.343,2464.101z" style="fill:#5A4A42;"/></g><g><path d="M2971.116,2531.759c14.02-16.553,40.557-21.542,60.611-16.02     c22.889,6.303,34.979,22.691,43.509,43.51c22.003,53.7-9.197,180.699-87.721,159.119     C2909.023,2696.798,2932.049,2577.886,2971.116,2531.759z" style="fill:#5A4A42;"/></g><g><path d="M2638.416,3320.323c-2.858-10.699-13.98-16.185-24.383-13.844     c-76.909,17.32-122.453,87.054-208.589,80.192c-84.556-6.737-124.838-79.623-195.854-112.489     c-13.114-6.069-25.645-0.939-30.781,12.523c-45.738,119.882,123.788,208.527,219.699,213.676     C2490.026,3505.291,2670.573,3440.708,2638.416,3320.323z" style="fill:#5A4A42;"/></g><g><path d="M2510.667,2978.646c-34.355-34.942-79.471-25.183-122.261-40.011     c-56.906-19.72-29.487-69.477-14.112-112.091l55.899-154.947c17.472-48.426,41.278-100.094,27.58-152.125     c-5.262-19.989-31.059-31.877-49.084-19.97c-59.023,38.992-78.014,122.655-103.243,185.027     c-27.586,68.202-76.661,149.378-74.303,224.589c2.001,63.91,48.579,114.573,105.797,137.398     c57.376,22.889,141.101,23.583,178.155-33.555C2521.931,3002.419,2519.184,2987.308,2510.667,2978.646z" style="fill:#5A4A42;"/></g><g><path d="M1998.297,2144.189c-69.797-37.88-157.483-34.333-234.07-24.409     c-54.972,7.122-190.168,27.59-188.165,106.389c1.967,77.394,120.285,44.551,163.35,35.428     c81.666-17.299,166.598-9.179,247.164-27.729C2027.396,2224.471,2034.768,2163.985,1998.297,2144.189z" style="fill:#5A4A42;"/></g><g><path d="M3355.5,2286.999c-16.657-61.999-95.009-95.035-150.594-113.077     c-60.593-19.67-144.583-44.136-206.868-21.704c-35.339,12.726-51.852,68.526-11.497,87.965     c54.743,26.367,120.715,27.068,178.616,46.849c51.805,17.7,110.853,52.921,166.608,41.764     C3349.855,2325.176,3359.995,2303.731,3355.5,2286.999z" style="fill:#5A4A42;"/></g><g><path d="M3431.008,3046.817c-6.055-144.845-178.38-172.47-291.159-159.459     c-44.506,5.135-105.03,18.344-158.324,42.576c-9.961,3.601-19.873,7.379-29.688,11.489     c-56.629,23.72-127.237,59.302-131.04,129.34c-3.959,72.912,51.689,110.472,120.959,129.425     c65.977,31.811,158.438,29.142,223.169,16.714C3272.66,3211.262,3436.775,3184.753,3431.008,3046.817z" style="fill:#C19259;"/></g><g><path d="M2008.547,2885.272c-68.743-44.608-134.832-85.676-212.661-113.117     c-46.42-16.369-104.333-33.784-152.535-19.527c-45.701-1.18-89.371,9.231-119.138,50.181     c-45.586,62.714-10.151,157.64,74.288,153.583c3.341-0.16,6.814-0.663,10.306-1.324c60.598,59.453,166.327,95.639,232.236,75.763     c5.592-1.687,10.965-3.87,16.226-6.265c45.274,2.803,90.949-0.578,134.445-10.505     C2053.794,2999.89,2056.835,2916.607,2008.547,2885.272z" style="fill:#C19259;"/></g><g><path d="M4056.239,1921.554c0.029,0.046,0.057,0.091,0.088,0.136c0.071-0.212,0.151-0.414,0.22-0.629     c0.003-0.002,0.003-0.004,0.003-0.004v-0.004c0.063-0.193,0.125-0.38,0.186-0.575c-0.086,0.122-0.194,0.273-0.274,0.392     c-0.622-1.265-1.627-3.191-3.102-5.933c-4.809-6.359,0.208,2.514,2.76,6.435c-0.109,0.16-0.183,0.277-0.285,0.433     c0.074,0.015,0.148,0.022,0.223,0.037C4056.116,1921.749,4056.179,1921.646,4056.239,1921.554z" style="fill:#37474F;"/></g><g><path d="M4619.989,1990.214c-2.323-3.196-10.416-26.33,2.152-1.816     c-22.57-44.024-18.643-86.453-0.129-120.59c-11.656-102.174-30.82-202.578-61.536-301.057     c-18.16-16.046-37.318-31.1-57.441-45.032c-51.215-35.458-109.73-62.47-169.379-80.243c-7.714-2.299-15.876-4.632-24.303-6.899     c0.141-4.172-0.036-8.355,0.023-12.531c-24.47-9.719-46.083-27.177-61.294-53.184c-7.247-12.39-11.983-26.353-14.539-40.879     c-25.096-27.108-52.407-52.235-79.851-76.921c-68.17-61.318-139.465-119.136-211.622-175.669     c-1.498-1.166-2.541-1.978-3.316-2.583c-3.333-2.557-6.661-5.12-10.002-7.668c-6.954-5.281-13.903-10.568-20.882-15.818     c-12.826-9.647-25.702-19.228-38.678-28.673c-19.739-14.366-39.539-28.944-60.214-41.958     c-34.86-21.944-73.861-39.656-114.49-54.76c-40.794,32.946-99.133,36.958-147.971,12.219     c-61.518-31.163-159.83-27.624-239.31-24.893c-97.031,3.334-194.585,5.112-291.492,10.33     c-201.236,10.837-402.92,47.019-601.489,80.108c-184.038,30.667-366.798,68.432-550.507,100.928     c-35.709,38.002-71.694,75.74-108.795,112.406c-55.923,55.268-114.384,102.136-177.625,144.712     c-61.348,61.802-126.749,119.474-194.787,174.071c-17.249,20.986-33.258,42.351-48.639,65.057c2.337,1.317,4.637,2.702,6.99,3.99     c92.046,50.375,198.298,72.406,300.773,90.439c115.662,20.354,232.464,35.49,349.078,49.215     c244.283,28.75,491.235,46.984,737.16,31.792c124.855-7.713,249.133-22.729,373.969-30.726     c112.675-7.217,242.67-19.505,352.441,12.982c51.502,15.242,93.282,43.907,121.715,82.783     c44.335,27.018,61.192,86.393,50.627,136.349c20.944,41.806-85.617,502.387-112.034,631.647     c-10.733,52.521,22.4,91.913,74.015,97.16c45.259,4.602,90.507,9.418,135.809,13.591c32.779,3.019,75.042-27.816,80.37-61.19     c25.611-160.444,34.957-326.915,83.484-482.189c1.435-0.459,2.879-0.845,4.312-1.329     c68.689-23.159,123.081-44.337,142.079-41.225c117.47,19.241,230.012,103.192,257.5,223.051     c30.956,134.971-46.555,266.587-159.185,337.388c-53.595,33.69-113.518,51.306-175.469,59.714     c-59.44,8.067-102.622,60.32-102.459,120.306c0.459,166.665-11.15,335.224-57.288,493.057     c106.447,64.984,237.482,89.071,361.573,60.637c82.699-204.456,194.836-399.452,289.181-595.728     c72.143-150.084,124.883-301.885,141.628-471.329c4.906-49.641,7.848-99.244,14.554-148.689     c0.843-6.219,1.703-12.437,2.548-18.656c0.155-1.248,0.383-3.077,0.724-5.784c2.211-17.57,4.39-35.145,6.235-52.758     c3.754-35.844,6.832-71.918,6.916-107.987c0.021-9.336-0.73-18.809-0.563-28.146     C4620.565,1996.729,4620.261,1993.402,4619.989,1990.214z" style="fill:#6D4C41;"/></g><g><path d="M3172.701,1530.722c-3.89-22.56-5.742-44.721-5.504-66.288     c-22.762-14.059-45.541-28.102-68.376-42.054c-57.744,103.335-183.749,137.126-292.789,115.734     c-145.558-28.556-281.299-98.762-415.137-161.843c-50.91,61.363-127.526,102.756-204.983,101.053     c-129.744-2.852-255.667-36.105-365.837-105.856c-48.323-30.594-83.424-72.312-104.437-119.401     c-43.974,39.656-89.735,74.956-138.338,107.678c-61.348,61.802-126.749,119.474-194.787,174.071     c-17.249,20.986-33.258,42.351-48.639,65.057c2.337,1.317,4.637,2.702,6.99,3.99c92.046,50.375,198.298,72.406,300.773,90.439     c115.662,20.354,232.464,35.49,349.078,49.215c244.283,28.75,491.235,46.984,737.16,31.792     c124.855-7.713,249.133-22.729,373.969-30.726c36.961-2.367,75.795-5.255,115.158-6.954     C3200.509,1668.355,3184.64,1599.954,3172.701,1530.722z" style="fill:#5D4037;"/></g><g><path d="M4619.989,1990.214c-2.323-3.196-10.416-26.33,2.152-1.816     c-22.57-44.024-18.643-86.453-0.129-120.59c-11.656-102.174-30.82-202.578-61.536-301.057     c-18.16-16.046-37.318-31.1-57.441-45.032c-51.215-35.458-109.73-62.47-169.379-80.243c-7.714-2.299-15.876-4.632-24.303-6.899     c0.141-4.172-0.036-8.355,0.023-12.531c-24.47-9.719-46.083-27.177-61.294-53.184c-7.247-12.39-11.983-26.353-14.539-40.879     c-25.096-27.108-52.407-52.235-79.851-76.921c-68.17-61.318-139.465-119.136-211.622-175.669     c-1.498-1.166-2.541-1.978-3.316-2.583c-3.333-2.557-6.661-5.12-10.002-7.668c-6.954-5.281-13.903-10.568-20.882-15.818     c-12.826-9.647-25.702-19.228-38.678-28.673c-19.739-14.366-39.539-28.944-60.214-41.958     c-20.227-12.732-41.955-23.908-64.479-34.108c15.204,50.121,26.586,101.661,34.657,154.049     c30.996,54.265,60.282,109.101,86.978,165.757c52.235,9.697,102.217,33.852,141.289,70.227     c136.111,126.714,221.912,304.085,270.43,481.35c83.026,303.34,79.362,642.526-19.133,941.687     c-59.977,182.17-148.084,353.99-238.115,522.758c-25.713,48.201-51.482,96.382-76.664,144.865     c70.088,16.273,143.881,17.421,215.392,1.036c82.699-204.456,194.836-399.452,289.181-595.728     c72.143-150.084,124.883-301.885,141.628-471.329c4.906-49.641,7.848-99.244,14.554-148.689     c0.843-6.219,1.703-12.437,2.548-18.656c0.155-1.248,0.383-3.077,0.724-5.784c2.211-17.57,4.39-35.145,6.235-52.758     c3.754-35.844,6.832-71.918,6.916-107.987c0.021-9.336-0.73-18.809-0.563-28.146     C4620.565,1996.729,4620.261,1993.402,4619.989,1990.214z" style="fill:#5D4037;"/></g><g><path d="M2206.202,1273.324c308.836,90.712,613.343,195.419,915.993,304.83     c298.521,107.919,596.452,217.986,893.565,329.71c141.989,53.393,279.622,114.151,416,180.365     c69.246,33.62,135.051,67.728,194.491,110.771c7.639-46.781,13.914-93.575,18.844-140.043     c21.286-200.603,7.819-406.402-43.889-601.632c-93.971-354.801-309.106-674.452-599.672-897.889     C3372.367,75.623,2420.021,139.308,1865.973,709.819c-118.897,122.429-218.111,261.999-293.214,412.808     C1786.019,1162.123,1996.722,1211.795,2206.202,1273.324z" style="fill:#3F51B5;"/></g><g><path d="M4601.207,1457.325c-93.971-354.801-309.107-674.452-599.671-897.889     c-113.814-87.52-238.238-157.027-368.932-208.955c12.062,14.782,24.106,29.582,35.782,44.694     c317.561,411.031,453.867,958.904,409.609,1474.371c-1.717,20.003-3.754,39.994-5.953,59.972     c122.195,47.975,241.434,101.281,359.718,158.711c69.246,33.62,135.052,67.727,194.491,110.771     c7.639-46.781,13.914-93.576,18.845-140.043C4666.381,1858.355,4652.915,1652.554,4601.207,1457.325z" style="fill:#3248A0;"/></g><g><path d="M3880.87,1858.609c0,0-894.237-1332.588-2308.111-735.982l-789.572,712.604     c0,0,970.217-467.575,2226.824,397.438L3880.87,1858.609z" style="fill:#2196F3;"/></g><g><path d="M3618.087,5110.317c137.959-40.445,333.978-125.275,385.867-273.473     c-20.561-7.928-41.285-15.567-62.175-22.908c-12.431-4.371-24.298-4.935-35.216-2.686c-9.411-1.135-19.144-1.278-29.061-0.405     c-66.339,89.415-183.368,130.297-289.823,148.997c-149.858,26.327-298.757,29.238-448.756,2.179     c-138.793-25.039-314.733-74.637-407.804-187.574c-44.595-54.116-70.735-117.475-83.252-184.116     c-73.283-17.792-148.708-25.424-224.454-25.75c-4.162,66.718,29.113,141.496,57.992,195.987     c37.245,70.275,91.161,133.322,153.133,182.923c130.226,104.229,290.779,161.385,454.05,188.618     C3264.352,5161.424,3445.997,5160.769,3618.087,5110.317z" style="fill:#2196F3;"/></g></g></g><g id="Layer_1"/></svg>