<?xml version="1.0" ?><svg viewBox="0 0 64 64" xmlns="http://www.w3.org/2000/svg"><g data-name="Layer 11" id="Layer_11"><path d="M37.062,19H26.938a8,8,0,0,0-7.919,6.869L18,33H46l-1.019-7.131A8,8,0,0,0,37.062,19Z" style="fill:#f8c460"/><rect height="4" style="fill:#cecece" width="20" x="22" y="43"/><path d="M18.973,59H26a0,0,0,0,1,0,0v2a2,2,0,0,1-2,2H16a0,0,0,0,1,0,0V61.973A2.973,2.973,0,0,1,18.973,59Z" style="fill:#f8c460"/><path d="M21.973,59h-3A2.973,2.973,0,0,0,16,61.973V63h3V61.973A2.973,2.973,0,0,1,21.973,59Z" style="fill:#eaac47"/><path d="M16.857,41.716,20,59h6L23.721,45.329A2,2,0,0,1,25.694,43H38.306a2,2,0,0,1,1.973,2.329L38,59h6l3.143-17.284A4,4,0,0,0,43.207,37H20.793A4,4,0,0,0,16.857,41.716Z" style="fill:#7a838b"/><path d="M38,59h8a2,2,0,0,1,2,2v2a0,0,0,0,1,0,0H40.973A2.973,2.973,0,0,1,38,60.027V59A0,0,0,0,1,38,59Z" style="fill:#f8c460" transform="translate(86 122) rotate(-180)"/><path d="M41,61V59H38v2a2,2,0,0,0,2,2h3A2,2,0,0,1,41,61Z" style="fill:#eaac47"/><rect height="4" rx="2" style="fill:#f8c460" width="62" x="1" y="33"/><path d="M21.374,52.556l-2.036-11.2A2,2,0,0,1,21.305,39h25.35a3.979,3.979,0,0,0-3.448-2H20.793a3.942,3.942,0,0,0-2.9,1.266c-.019.02-.244.283-.329.4-.054.073-.2.3-.223.333h.009a3.918,3.918,0,0,0-.5,2.716L20,59h6l-.5-3A4.193,4.193,0,0,1,21.374,52.556Z" style="fill:#5d6972"/><path d="M4,35a2,2,0,0,1,2-2H3a2,2,0,0,0,0,4H6A2,2,0,0,1,4,35Z" style="fill:#eaac47"/><path d="M3,37H7a0,0,0,0,1,0,0V61a2,2,0,0,1-2,2H5a2,2,0,0,1-2-2V37A0,0,0,0,1,3,37Z" style="fill:#f8c460"/><rect height="2" style="fill:#eaac47" width="4" x="3" y="37"/><path d="M57,37h4a0,0,0,0,1,0,0V61a2,2,0,0,1-2,2h0a2,2,0,0,1-2-2V37A0,0,0,0,1,57,37Z" style="fill:#f8c460"/><rect height="2" style="fill:#eaac47" width="4" x="57" y="37"/><path d="M52,27h5a0,0,0,0,1,0,0v4a2,2,0,0,1-2,2H54a2,2,0,0,1-2-2V27A0,0,0,0,1,52,27Z" style="fill:#e6e6e6"/><path d="M55,28V27H52v4a2,2,0,0,0,2,2h1a2,2,0,0,0,2-2V30A2,2,0,0,1,55,28Z" style="fill:#cecece"/><path d="M12.306,33H9.694a2,2,0,0,1-1.973-1.671L7,27h8l-.721,4.329A2,2,0,0,1,12.306,33Z" style="fill:#e6e6e6"/><path d="M11,19h0a2,2,0,0,1,2,2v6a0,0,0,0,1,0,0H9a0,0,0,0,1,0,0V21a2,2,0,0,1,2-2Z" style="fill:#72aa65"/><rect height="2" style="fill:#599149" width="4" x="9" y="25"/><path d="M26,7H38a0,0,0,0,1,0,0v6a6,6,0,0,1-6,6h0a6,6,0,0,1-6-6V7A0,0,0,0,1,26,7Z" style="fill:#ffd3b6"/><path d="M35,16a6,6,0,0,1-6-6V7H26v6a6,6,0,0,0,11.466,2.466A5.974,5.974,0,0,1,35,16Z" style="fill:#f9b995"/><path d="M32,1h0a6,6,0,0,0-6,6V9h4.172a2,2,0,0,0,1.414-.586L33,7l1.414,1.414A2,2,0,0,0,35.828,9H38V7A6,6,0,0,0,32,1Z" style="fill:#7a838b"/><path d="M33.5,1.2A5.978,5.978,0,0,0,26,7V9h3V7A6,6,0,0,1,33.5,1.2Z" style="fill:#5d6972"/><path d="M41.694,19H22.306a2,2,0,0,0-1.98,2.283l1.429,10A2,2,0,0,0,23.735,33h16.53a2,2,0,0,0,1.98-1.717l1.429-10A2,2,0,0,0,41.694,19Z" style="fill:#a7d0e1"/><path d="M35.408,30a12,12,0,0,1-11.88-10.3l-.1-.7H22.306a2,2,0,0,0-1.98,2.283l1.429,10A2,2,0,0,0,23.735,33h16.53a2,2,0,0,0,1.98-1.717L42.429,30Z" style="fill:#80bbce"/><path d="M12.694,30a2,2,0,0,1-1.973-1.671L10.5,27H7l.721,4.329A2,2,0,0,0,9.694,33h2.612a2,2,0,0,0,1.973-1.671L14.5,30Z" style="fill:#cecece"/><circle cx="32" cy="26" r="3" style="fill:#7a838b"/><path d="M64,35a3,3,0,0,0-3-3H57.816A2.966,2.966,0,0,0,58,31V27a1,1,0,0,0-1-1H52a1,1,0,0,0-1,1v4a2.966,2.966,0,0,0,.184,1H46.868l-.9-6.273a9.027,9.027,0,0,0-1.4-3.665l.091-.637A3,3,0,0,0,41.694,18h-4.8A6.973,6.973,0,0,0,39,13V7A7,7,0,0,0,25,7v6a6.973,6.973,0,0,0,2.111,5h-4.8a3,3,0,0,0-2.97,3.425l.091.636a9.06,9.06,0,0,0-1.4,3.666L17.132,32h-2a3.018,3.018,0,0,0,.132-.507l.721-4.329A1,1,0,0,0,15,26H14V21a3,3,0,0,0-6,0v5H7a1,1,0,0,0-.986,1.164l.721,4.329A3.018,3.018,0,0,0,6.867,32H3a2.993,2.993,0,0,0-1,5.816V61a3,3,0,0,0,6,0V38h8.8a4.986,4.986,0,0,0-.929,3.9h0l2.931,16.122A3.969,3.969,0,0,0,15,61.973V63a1,1,0,0,0,1,1h8a3,3,0,0,0,3-3V59c0-.031-1.82-11-1.82-11H38.82S37,58.969,37,59v2a3,3,0,0,0,3,3h8a1,1,0,0,0,1-1V61.973a3.969,3.969,0,0,0-3.8-3.956L48.127,41.9A4.986,4.986,0,0,0,47.2,38H56v5a1,1,0,0,0,2,0V38h2V61a1,1,0,0,1-2,0V47a1,1,0,0,0-2,0V61a3,3,0,0,0,6,0V37.816A3,3,0,0,0,64,35ZM53,31V28h3v3a1,1,0,0,1-1,1H54A1,1,0,0,1,53,31Zm-8.153,1H43.089a2.9,2.9,0,0,0,.146-.575L44,26.072ZM27,7A5,5,0,0,1,37,7V8H35.828a1,1,0,0,1-.707-.293L33.707,6.293a1,1,0,0,0-1.414,0L30.879,7.707A1,1,0,0,1,30.172,8H27Zm0,6V10h3.172a2.978,2.978,0,0,0,2.121-.879L33,8.414l.707.707A2.978,2.978,0,0,0,35.828,10H37v3a5,5,0,0,1-10,0Zm-5.449,7.345A.984.984,0,0,1,22.306,20H41.694a1,1,0,0,1,.99,1.142l-1.429,10a1,1,0,0,1-.989.858H23.734a1,1,0,0,1-.989-.858l-1.429-10A.986.986,0,0,1,21.551,20.345ZM20,26.072l.765,5.353a2.9,2.9,0,0,0,.146.575H19.153ZM10,21a1,1,0,0,1,2,0v5H10ZM8.708,31.165,8.181,28h5.638l-.527,3.165a1,1,0,0,1-.986.835H9.694A1,1,0,0,1,8.708,31.165ZM6,61a1,1,0,0,1-2,0V38H6Zm19,0a1,1,0,0,1-1,1H17v-.027A1.975,1.975,0,0,1,18.973,60H25Zm-.153-15-.139-.835A1,1,0,0,1,25.694,44H38.306a1,1,0,0,1,.986,1.165L39.153,46ZM47,61.973,40,62a1,1,0,0,1-1-1V60h6.027A1.975,1.975,0,0,1,47,61.973Zm-1.489-22.9a3,3,0,0,1,.648,2.46L43.165,58H39.181l2.084-12.507A3,3,0,0,0,38.306,42H25.694a3,3,0,0,0-2.959,3.493L24.819,58H20.835L17.842,41.537A3,3,0,0,1,20.793,38H43.207A3,3,0,0,1,45.511,39.077ZM61,36H3a1,1,0,0,1,0-2H61a1,1,0,0,1,0,2Z"/><path d="M52.105,23.447a1,1,0,1,0,1.79-.894l-.553-1.105a1.006,1.006,0,0,1,0-.895l.553-1.106a1,1,0,0,0-1.79-.894l-.552,1.106a3.02,3.02,0,0,0,0,2.683Z"/><path d="M56.105,23.447a1,1,0,1,0,1.79-.894l-.553-1.105a1.006,1.006,0,0,1,0-.895l.553-1.106a1,1,0,0,0-1.79-.894l-.552,1.106a3.02,3.02,0,0,0,0,2.683Z"/><path d="M32,30a4,4,0,1,0-4-4A4,4,0,0,0,32,30Zm0-6a2,2,0,1,1-2,2A2,2,0,0,1,32,24Z"/><path d="M41,22H39a1,1,0,0,1,0-2h2a1,1,0,0,1,0,2Z" style="fill:#fff"/></g></svg>