<svg width="38" height="38" viewBox="0 0 38 38" fill="none" xmlns="http://www.w3.org/2000/svg">
<path d="M18.9856 1.6792C9.35256 1.6792 1.51544 9.51632 1.51544 19.1493C1.51544 28.7823 9.35256 36.6194 18.9856 36.6194C28.6186 36.6194 36.4557 28.7823 36.4557 19.1493C36.4557 9.51632 28.6186 1.6792 18.9856 1.6792ZM18.9856 35.8594C9.7717 35.8594 2.27544 28.3632 2.27544 19.1493C2.27544 9.93546 9.7717 2.4392 18.9856 2.4392C28.1994 2.4392 35.6957 9.93546 35.6957 19.1493C35.6957 28.3632 28.1994 35.8594 18.9856 35.8594Z" fill="#FEFEFE"/>
<path d="M27.1438 11.0526C27.037 10.8626 26.8356 10.7441 26.6186 10.7441C26.6065 10.7441 26.5719 10.7456 26.5597 10.7471C23.9985 10.9956 22.7818 11.8191 22.2315 12.3948C20.143 11.8962 17.8281 11.8962 15.7396 12.3948C15.1905 11.8187 13.9737 10.9956 11.411 10.7467C11.3992 10.7456 11.3658 10.7441 11.354 10.7441C11.1351 10.7441 10.9334 10.8626 10.8262 11.0545C10.7217 11.2445 9.84998 12.9283 10.5264 15.2258C9.37536 16.4403 8.76812 17.8619 8.76812 19.3503C8.76812 21.3031 8.88516 23.3434 10.2839 24.9416C11.8226 26.6995 14.6688 27.5541 18.9852 27.5541C23.3012 27.5541 26.1482 26.6995 27.6872 24.9416C29.0856 23.3434 29.2022 21.3031 29.2022 19.3503C29.2022 17.8622 28.595 16.441 27.444 15.2258C28.1215 12.9287 27.2498 11.2445 27.1438 11.0526ZM14.261 25.3992C13.0462 24.6422 12.4553 23.3449 12.4553 21.4339C12.4553 19.1995 13.4003 19.0144 14.4533 19.0144C15.048 19.0144 15.7316 19.1109 16.4559 19.2128C17.2809 19.329 18.1336 19.4491 18.9856 19.4491C19.8383 19.4491 20.6906 19.329 21.5152 19.2128C22.2391 19.1105 22.9227 19.0144 23.5178 19.0144C24.5708 19.0144 25.5155 19.1995 25.5155 21.4339C25.5155 23.3453 24.925 24.6422 23.7101 25.3992C22.6773 26.0429 21.1763 26.3427 18.9856 26.3427C16.7952 26.3427 15.2942 26.0429 14.261 25.3992ZM28.443 19.3503C28.443 21.1587 28.3404 23.0413 27.116 24.4412C26.3378 25.3296 25.1594 25.9619 23.5528 26.3457C23.7508 26.2538 23.937 26.1535 24.1125 26.044C25.5679 25.137 26.2755 23.6291 26.2755 21.4339C26.2755 18.6158 24.8018 18.2544 23.5178 18.2544C22.8699 18.2544 22.1605 18.3543 21.4092 18.4604C20.6108 18.5728 19.7855 18.6891 18.9856 18.6891C18.1864 18.6891 17.3607 18.5728 16.5619 18.4604C15.8107 18.3543 15.1012 18.2544 14.4533 18.2544C13.1693 18.2544 11.6953 18.6158 11.6953 21.4339C11.6953 23.6287 12.4028 25.137 13.859 26.044C14.0342 26.1535 14.2204 26.2538 14.4187 26.3457C12.8121 25.9619 11.6337 25.3296 10.8558 24.4412C9.63034 23.0413 9.52812 21.1587 9.52812 19.3503C9.52812 18.0002 10.1148 16.7025 11.2248 15.5982C11.3274 15.4964 11.3628 15.3455 11.3175 15.2087C10.6921 13.3319 11.2697 11.8856 11.4452 11.514C14.0387 11.7872 15.0104 12.6806 15.3094 13.056C15.4029 13.1734 15.5564 13.2251 15.7016 13.1871C17.8026 12.6456 20.1674 12.6456 22.2691 13.1871C22.4143 13.2243 22.5674 13.173 22.6609 13.056C22.9611 12.6802 23.9358 11.7838 26.5255 11.5132C26.7015 11.8852 27.2787 13.3319 26.6536 15.2087C26.608 15.3455 26.6437 15.4964 26.7459 15.5982C27.8563 16.7032 28.443 18.0006 28.443 19.3503Z" fill="#FEFEFE"/>
<path d="M15.059 20.219C14.2709 20.219 13.6538 21.0235 13.6538 22.0502C13.6538 23.077 14.2709 23.8814 15.059 23.8814C15.8471 23.8814 16.4646 23.077 16.4646 22.0502C16.4646 21.0235 15.8471 20.219 15.059 20.219ZM15.059 23.1214C14.709 23.1214 14.4138 22.6309 14.4138 22.0502C14.4138 21.4696 14.709 20.979 15.059 20.979C15.409 20.979 15.7046 21.4696 15.7046 22.0502C15.7046 22.6309 15.409 23.1214 15.059 23.1214Z" fill="#FEFEFE"/>
<path d="M22.9121 20.219C22.124 20.219 21.5069 21.0235 21.5069 22.0502C21.5069 23.077 22.124 23.8814 22.9121 23.8814C23.7002 23.8814 24.3177 23.077 24.3177 22.0502C24.3177 21.0235 23.7002 20.219 22.9121 20.219ZM22.9121 23.1214C22.5621 23.1214 22.2669 22.6309 22.2669 22.0502C22.2669 21.4696 22.5621 20.979 22.9121 20.979C23.2621 20.979 23.5577 21.4696 23.5577 22.0502C23.5577 22.6309 23.2621 23.1214 22.9121 23.1214Z" fill="#FEFEFE"/>
</svg>
