<?xml version="1.0" ?><svg enable-background="new 0 0 512 512" id="Layer_1" version="1.1" viewBox="0 0 512 512" xml:space="preserve" xmlns="http://www.w3.org/2000/svg" xmlns:xlink="http://www.w3.org/1999/xlink"><g><g><g><path d="M205.3,114.7h105.3c14.9,0,26.9,12,26.9,26.9v243.6c0,14.9-12,26.9-26.9,26.9H205.3     c-14.9,0-26.9-12-26.9-26.9V141.6C178.4,126.7,190.4,114.7,205.3,114.7z" fill="#CBE1EF"/><path d="     M295.6,121h15" fill="none" opacity="0.6" stroke="#FFFFFF" stroke-linecap="round" stroke-linejoin="round" stroke-miterlimit="10" stroke-width="6.3595"/><line fill="none" opacity="0.6" stroke="#FFFFFF" stroke-linecap="round" stroke-linejoin="round" stroke-miterlimit="10" stroke-width="6.3595" x1="331.1" x2="331.1" y1="221.8" y2="236.9"/><line fill="none" opacity="0.6" stroke="#FFFFFF" stroke-linecap="round" stroke-linejoin="round" stroke-miterlimit="10" stroke-width="6.3595" x1="331.1" x2="331.1" y1="189.6" y2="209.4"/><path d="     M325,127c3.8,3.7,6.1,8.9,6.1,14.6" fill="none" opacity="0.6" stroke="#FFFFFF" stroke-linecap="round" stroke-linejoin="round" stroke-miterlimit="10" stroke-width="6.3595"/><path d="     M262,403.6h-56.7c-10.2,0-18.4-8.3-18.4-18.4v-16.8" fill="none" opacity="0.1" stroke="#000000" stroke-linecap="round" stroke-linejoin="round" stroke-miterlimit="10" stroke-width="10.5991"/></g><g><path d="     M205.3,114.7h105.3c14.9,0,26.9,12,26.9,26.9v243.6c0,14.9-12,26.9-26.9,26.9H205.3c-14.9,0-26.9-12-26.9-26.9V141.6     C178.4,126.7,190.4,114.7,205.3,114.7z" fill="none" stroke="#000000" stroke-linecap="round" stroke-linejoin="round" stroke-miterlimit="10" stroke-width="6.3595"/></g><line fill="none" stroke="#000000" stroke-linecap="round" stroke-linejoin="round" stroke-miterlimit="10" stroke-width="6.3595" x1="225.1" x2="290.8" y1="131.5" y2="131.5"/><path d="M250.4,197.7h55.4c5.9,0,10.6-4.7,10.6-10.6v-23.4c0-5.9-4.7-10.6-10.6-10.6h-55.4    c-5.9,0-10.6,4.7-10.6,10.6v23.4C239.8,193,244.5,197.7,250.4,197.7z" fill="#9ACDE0"/><path d="    M269.8,189.3h-19.5c-1.2,0-2.1-1-2.1-2.1v-5.3" fill="none" opacity="0.1" stroke="#000000" stroke-linecap="round" stroke-linejoin="round" stroke-miterlimit="10" stroke-width="10.5991"/><path d="    M302.3,159.5h3.4" fill="none" opacity="0.6" stroke="#FFFFFF" stroke-linecap="round" stroke-linejoin="round" stroke-miterlimit="10" stroke-width="6.3595"/><line fill="none" opacity="0.6" stroke="#FFFFFF" stroke-linecap="round" stroke-linejoin="round" stroke-miterlimit="10" stroke-width="6.3595" x1="280.1" x2="291.5" y1="159.5" y2="159.5"/><path d="    M250.4,197.7h55.4c5.9,0,10.6-4.7,10.6-10.6v-23.4c0-5.9-4.7-10.6-10.6-10.6h-55.4c-5.9,0-10.6,4.7-10.6,10.6v23.4    C239.8,193,244.5,197.7,250.4,197.7z" fill="none" stroke="#000000" stroke-linecap="round" stroke-linejoin="round" stroke-miterlimit="10" stroke-width="6.3595"/><path d="M210.1,254.8h55.4c5.9,0,10.6-4.7,10.6-10.6v-14.7c0-5.9-4.7-10.6-10.6-10.6h-55.4    c-5.9,0-10.6,4.7-10.6,10.6v14.7C199.5,250.1,204.3,254.8,210.1,254.8z" fill="#B6CDBD"/><path d="    M265.5,225.3c2.3,0,4.2,1.9,4.2,4.2" fill="none" opacity="0.6" stroke="#FFFFFF" stroke-linecap="round" stroke-linejoin="round" stroke-miterlimit="10" stroke-width="6.3595"/><line fill="none" opacity="0.6" stroke="#FFFFFF" stroke-linecap="round" stroke-linejoin="round" stroke-miterlimit="10" stroke-width="6.3595" x1="244.4" x2="253.3" y1="225.3" y2="225.3"/><path d="    M242.1,246.3h-32c-1.2,0-2.1-1-2.1-2.1v-8.3" fill="none" opacity="0.1" stroke="#000000" stroke-linecap="round" stroke-linejoin="round" stroke-miterlimit="10" stroke-width="10.5991"/><path d="    M210.1,254.8h55.4c5.9,0,10.6-4.7,10.6-10.6v-14.7c0-5.9-4.7-10.6-10.6-10.6h-55.4c-5.9,0-10.6,4.7-10.6,10.6v14.7    C199.5,250.1,204.3,254.8,210.1,254.8z" fill="none" stroke="#000000" stroke-linecap="round" stroke-linejoin="round" stroke-miterlimit="10" stroke-width="6.3595"/><path d="M210.1,386.2h55.4c5.9,0,10.6-4.7,10.6-10.6V361c0-5.9-4.7-10.6-10.6-10.6h-55.4    c-5.9,0-10.6,4.7-10.6,10.6v14.7C199.5,381.5,204.3,386.2,210.1,386.2z" fill="#B6CDBD"/><line fill="none" opacity="0.6" stroke="#FFFFFF" stroke-linecap="round" stroke-linejoin="round" stroke-miterlimit="10" stroke-width="6.3595" x1="241.7" x2="249.1" y1="356.7" y2="356.7"/><path d="    M260.6,356.7h4.8c2.3,0,4.2,1.9,4.2,4.2" fill="none" opacity="0.6" stroke="#FFFFFF" stroke-linecap="round" stroke-linejoin="round" stroke-miterlimit="10" stroke-width="6.3595"/><path d="    M228.6,377.7h-18.5c-1.2,0-2.1-1-2.1-2.1v-4.9" fill="none" opacity="0.1" stroke="#000000" stroke-linecap="round" stroke-linejoin="round" stroke-miterlimit="10" stroke-width="10.5991"/><path d="    M210.1,386.2h55.4c5.9,0,10.6-4.7,10.6-10.6V361c0-5.9-4.7-10.6-10.6-10.6h-55.4c-5.9,0-10.6,4.7-10.6,10.6v14.7    C199.5,381.5,204.3,386.2,210.1,386.2z" fill="none" stroke="#000000" stroke-linecap="round" stroke-linejoin="round" stroke-miterlimit="10" stroke-width="6.3595"/><path d="M250.4,329.2h55.4c5.9,0,10.6-4.7,10.6-10.6v-32c0-5.9-4.7-10.6-10.6-10.6h-55.4    c-5.9,0-10.6,4.7-10.6,10.6v32C239.8,324.4,244.5,329.2,250.4,329.2z" fill="#9ACDE0"/><path d="    M269.8,320.7h-19.5c-1.2,0-2.1-1-2.1-2.1v-7" fill="none" opacity="0.1" stroke="#000000" stroke-linecap="round" stroke-linejoin="round" stroke-miterlimit="10" stroke-width="10.5991"/><line fill="none" opacity="0.6" stroke="#FFFFFF" stroke-linecap="round" stroke-linejoin="round" stroke-miterlimit="10" stroke-width="6.3595" x1="282.7" x2="288.7" y1="282.4" y2="282.4"/><path d="    M300.3,282.4h5.4c2.3,0,4.2,1.9,4.2,4.2v3.3" fill="none" opacity="0.6" stroke="#FFFFFF" stroke-linecap="round" stroke-linejoin="round" stroke-miterlimit="10" stroke-width="6.3595"/><path d="    M250.4,329.2h55.4c5.9,0,10.6-4.7,10.6-10.6v-32c0-5.9-4.7-10.6-10.6-10.6h-55.4c-5.9,0-10.6,4.7-10.6,10.6v32    C239.8,324.4,244.5,329.2,250.4,329.2z" fill="none" stroke="#000000" stroke-linecap="round" stroke-linejoin="round" stroke-miterlimit="10" stroke-width="6.3595"/><line fill="none" stroke="#000000" stroke-linecap="round" stroke-linejoin="round" stroke-miterlimit="10" stroke-width="6.3595" x1="258.1" x2="298.1" y1="169.1" y2="169.1"/><line fill="none" stroke="#000000" stroke-linecap="round" stroke-linejoin="round" stroke-miterlimit="10" stroke-width="6.3595" x1="217.8" x2="257.8" y1="236.9" y2="236.9"/><line fill="none" stroke="#000000" stroke-linecap="round" stroke-linejoin="round" stroke-miterlimit="10" stroke-width="6.3595" x1="217.8" x2="257.8" y1="368.4" y2="368.4"/><line fill="none" stroke="#000000" stroke-linecap="round" stroke-linejoin="round" stroke-miterlimit="10" stroke-width="6.3595" x1="258.1" x2="298.1" y1="181.8" y2="181.8"/><line fill="none" stroke="#000000" stroke-linecap="round" stroke-linejoin="round" stroke-miterlimit="10" stroke-width="6.3595" x1="258.1" x2="298.1" y1="289.9" y2="289.9"/><line fill="none" stroke="#000000" stroke-linecap="round" stroke-linejoin="round" stroke-miterlimit="10" stroke-width="6.3595" x1="258.1" x2="298.1" y1="302.6" y2="302.6"/><line fill="none" stroke="#000000" stroke-linecap="round" stroke-linejoin="round" stroke-miterlimit="10" stroke-width="6.3595" x1="258.1" x2="298.1" y1="315.4" y2="315.4"/></g><g><path d="M103.9,80h-0.5c-8.7,0-15.8-7.1-15.8-15.8v-3.7c0-8.7,7.1-15.8,15.8-15.8h0.5c8.7,0,15.8,7.1,15.8,15.8    v3.7C119.7,72.9,112.6,80,103.9,80z" fill="#B6CDBD"/><path d="    M107.6,51.9c1.5,0.6,2.8,1.6,3.7,2.9" fill="none" opacity="0.6" stroke="#FFFFFF" stroke-linecap="round" stroke-linejoin="round" stroke-miterlimit="10" stroke-width="6.3595"/><path d="    M103.9,80h-0.5c-8.7,0-15.8-7.1-15.8-15.8v-3.7c0-8.7,7.1-15.8,15.8-15.8h0.5c8.7,0,15.8,7.1,15.8,15.8v3.7    C119.7,72.9,112.6,80,103.9,80z" fill="none" stroke="#000000" stroke-linecap="round" stroke-linejoin="round" stroke-miterlimit="10" stroke-width="6.3595"/><path d="M133.1,118.4V88.7c0-4.8-3.9-8.7-8.7-8.7H82.9c-4.8,0-8.7,3.9-8.7,8.7v29.7H133.1z" fill="#B6CDBD"/><path d="    M115.2,86.3h9.3c1.3,0,2.3,1,2.3,2.3v2.4" fill="none" opacity="0.6" stroke="#FFFFFF" stroke-linecap="round" stroke-linejoin="round" stroke-miterlimit="10" stroke-width="6.3595"/><line fill="none" opacity="0.1" stroke="#000000" stroke-linecap="round" stroke-linejoin="round" stroke-miterlimit="10" stroke-width="10.5991" x1="105.6" x2="87" y1="109.9" y2="109.9"/><path d="    M133.1,118.4V88.7c0-4.8-3.9-8.7-8.7-8.7H82.9c-4.8,0-8.7,3.9-8.7,8.7v29.7H133.1z" fill="none" stroke="#000000" stroke-linecap="round" stroke-linejoin="round" stroke-miterlimit="10" stroke-width="6.3595"/><g><line fill="none" stroke="#000000" stroke-linecap="round" stroke-linejoin="round" stroke-miterlimit="10" stroke-width="6.3595" x1="89.5" x2="89.5" y1="118.4" y2="99.2"/><line fill="none" stroke="#000000" stroke-linecap="round" stroke-linejoin="round" stroke-miterlimit="10" stroke-width="6.3595" x1="117.9" x2="117.9" y1="118.4" y2="99.2"/></g></g><g><path d="M103.9,428.7h-0.5c-8.7,0-15.8-7.1-15.8-15.8v-3.7c0-8.7,7.1-15.8,15.8-15.8h0.5c8.7,0,15.8,7.1,15.8,15.8    v3.7C119.7,421.6,112.6,428.7,103.9,428.7z" fill="#B9A6DA"/><path d="    M107.6,400.6c1.5,0.6,2.8,1.6,3.7,2.9" fill="none" opacity="0.6" stroke="#FFFFFF" stroke-linecap="round" stroke-linejoin="round" stroke-miterlimit="10" stroke-width="6.3595"/><path d="    M103.9,428.7h-0.5c-8.7,0-15.8-7.1-15.8-15.8v-3.7c0-8.7,7.1-15.8,15.8-15.8h0.5c8.7,0,15.8,7.1,15.8,15.8v3.7    C119.7,421.6,112.6,428.7,103.9,428.7z" fill="none" stroke="#000000" stroke-linecap="round" stroke-linejoin="round" stroke-miterlimit="10" stroke-width="6.3595"/><path d="M133.1,467.1v-29.7c0-4.8-3.9-8.7-8.7-8.7H82.9c-4.8,0-8.7,3.9-8.7,8.7v29.7H133.1z" fill="#B9A6DA"/><path d="    M115.2,435.1h9.3c1.3,0,2.3,1,2.3,2.3v2.4" fill="none" opacity="0.6" stroke="#FFFFFF" stroke-linecap="round" stroke-linejoin="round" stroke-miterlimit="10" stroke-width="6.3595"/><line fill="none" opacity="0.1" stroke="#000000" stroke-linecap="round" stroke-linejoin="round" stroke-miterlimit="10" stroke-width="10.5991" x1="105.6" x2="87" y1="458.6" y2="458.6"/><path d="    M133.1,467.1v-29.7c0-4.8-3.9-8.7-8.7-8.7H82.9c-4.8,0-8.7,3.9-8.7,8.7v29.7H133.1z" fill="none" stroke="#000000" stroke-linecap="round" stroke-linejoin="round" stroke-miterlimit="10" stroke-width="6.3595"/><g><line fill="none" stroke="#000000" stroke-linecap="round" stroke-linejoin="round" stroke-miterlimit="10" stroke-width="6.3595" x1="89.5" x2="89.5" y1="467.1" y2="447.9"/><line fill="none" stroke="#000000" stroke-linecap="round" stroke-linejoin="round" stroke-miterlimit="10" stroke-width="6.3595" x1="117.9" x2="117.9" y1="467.1" y2="447.9"/></g></g><g><path d="M103.9,257h-0.5c-8.7,0-15.8-7.1-15.8-15.8v-3.7c0-8.7,7.1-15.8,15.8-15.8h0.5c8.7,0,15.8,7.1,15.8,15.8    v3.7C119.7,249.9,112.6,257,103.9,257z" fill="#5EA9BE"/><path d="    M107.6,228.9c1.5,0.6,2.8,1.6,3.7,2.9" fill="none" opacity="0.6" stroke="#FFFFFF" stroke-linecap="round" stroke-linejoin="round" stroke-miterlimit="10" stroke-width="6.3595"/><path d="    M103.9,257h-0.5c-8.7,0-15.8-7.1-15.8-15.8v-3.7c0-8.7,7.1-15.8,15.8-15.8h0.5c8.7,0,15.8,7.1,15.8,15.8v3.7    C119.7,249.9,112.6,257,103.9,257z" fill="none" stroke="#000000" stroke-linecap="round" stroke-linejoin="round" stroke-miterlimit="10" stroke-width="6.3595"/><path d="M133.1,295.4v-29.7c0-4.8-3.9-8.7-8.7-8.7H82.9c-4.8,0-8.7,3.9-8.7,8.7v29.7H133.1z" fill="#5EA9BE"/><path d="    M115.2,263.4h9.3c1.3,0,2.3,1,2.3,2.3v2.4" fill="none" opacity="0.6" stroke="#FFFFFF" stroke-linecap="round" stroke-linejoin="round" stroke-miterlimit="10" stroke-width="6.3595"/><line fill="none" opacity="0.1" stroke="#000000" stroke-linecap="round" stroke-linejoin="round" stroke-miterlimit="10" stroke-width="10.5991" x1="105.6" x2="87" y1="286.9" y2="286.9"/><path d="    M133.1,295.4v-29.7c0-4.8-3.9-8.7-8.7-8.7H82.9c-4.8,0-8.7,3.9-8.7,8.7v29.7H133.1z" fill="none" stroke="#000000" stroke-linecap="round" stroke-linejoin="round" stroke-miterlimit="10" stroke-width="6.3595"/><g><line fill="none" stroke="#000000" stroke-linecap="round" stroke-linejoin="round" stroke-miterlimit="10" stroke-width="6.3595" x1="89.5" x2="89.5" y1="295.4" y2="276.2"/><line fill="none" stroke="#000000" stroke-linecap="round" stroke-linejoin="round" stroke-miterlimit="10" stroke-width="6.3595" x1="117.9" x2="117.9" y1="295.4" y2="276.2"/></g></g><g><path d="M409.2,80h-0.5c-8.7,0-15.8-7.1-15.8-15.8v-3.7c0-8.7,7.1-15.8,15.8-15.8h0.5c8.7,0,15.8,7.1,15.8,15.8    v3.7C424.9,72.9,417.9,80,409.2,80z" fill="#5EA9BE"/><path d="    M412.8,51.9c1.5,0.6,2.8,1.6,3.7,2.9" fill="none" opacity="0.6" stroke="#FFFFFF" stroke-linecap="round" stroke-linejoin="round" stroke-miterlimit="10" stroke-width="6.3595"/><path d="    M409.2,80h-0.5c-8.7,0-15.8-7.1-15.8-15.8v-3.7c0-8.7,7.1-15.8,15.8-15.8h0.5c8.7,0,15.8,7.1,15.8,15.8v3.7    C424.9,72.9,417.9,80,409.2,80z" fill="none" stroke="#000000" stroke-linecap="round" stroke-linejoin="round" stroke-miterlimit="10" stroke-width="6.3595"/><path d="M438.4,118.4V88.7c0-4.8-3.9-8.7-8.7-8.7h-41.5c-4.8,0-8.7,3.9-8.7,8.7v29.7H438.4z" fill="#5EA9BE"/><path d="    M420.4,86.3h9.3c1.3,0,2.3,1,2.3,2.3v2.4" fill="none" opacity="0.6" stroke="#FFFFFF" stroke-linecap="round" stroke-linejoin="round" stroke-miterlimit="10" stroke-width="6.3595"/><line fill="none" opacity="0.1" stroke="#000000" stroke-linecap="round" stroke-linejoin="round" stroke-miterlimit="10" stroke-width="10.5991" x1="410.8" x2="392.2" y1="109.9" y2="109.9"/><path d="    M438.4,118.4V88.7c0-4.8-3.9-8.7-8.7-8.7h-41.5c-4.8,0-8.7,3.9-8.7,8.7v29.7H438.4z" fill="none" stroke="#000000" stroke-linecap="round" stroke-linejoin="round" stroke-miterlimit="10" stroke-width="6.3595"/><g><line fill="none" stroke="#000000" stroke-linecap="round" stroke-linejoin="round" stroke-miterlimit="10" stroke-width="6.3595" x1="394.7" x2="394.7" y1="118.4" y2="99.2"/><line fill="none" stroke="#000000" stroke-linecap="round" stroke-linejoin="round" stroke-miterlimit="10" stroke-width="6.3595" x1="423.1" x2="423.1" y1="118.4" y2="99.2"/></g></g><g><path d="M409.2,428.7h-0.5c-8.7,0-15.8-7.1-15.8-15.8v-3.7c0-8.7,7.1-15.8,15.8-15.8h0.5c8.7,0,15.8,7.1,15.8,15.8    v3.7C424.9,421.6,417.9,428.7,409.2,428.7z" fill="#5EA9BE"/><path d="    M412.8,400.6c1.5,0.6,2.8,1.6,3.7,2.9" fill="none" opacity="0.6" stroke="#FFFFFF" stroke-linecap="round" stroke-linejoin="round" stroke-miterlimit="10" stroke-width="6.3595"/><path d="    M409.2,428.7h-0.5c-8.7,0-15.8-7.1-15.8-15.8v-3.7c0-8.7,7.1-15.8,15.8-15.8h0.5c8.7,0,15.8,7.1,15.8,15.8v3.7    C424.9,421.6,417.9,428.7,409.2,428.7z" fill="none" stroke="#000000" stroke-linecap="round" stroke-linejoin="round" stroke-miterlimit="10" stroke-width="6.3595"/><path d="M438.4,467.1v-29.7c0-4.8-3.9-8.7-8.7-8.7h-41.5c-4.8,0-8.7,3.9-8.7,8.7v29.7H438.4z" fill="#5EA9BE"/><path d="    M420.4,435.1h9.3c1.3,0,2.3,1,2.3,2.3v2.4" fill="none" opacity="0.6" stroke="#FFFFFF" stroke-linecap="round" stroke-linejoin="round" stroke-miterlimit="10" stroke-width="6.3595"/><line fill="none" opacity="0.1" stroke="#000000" stroke-linecap="round" stroke-linejoin="round" stroke-miterlimit="10" stroke-width="10.5991" x1="410.8" x2="392.2" y1="458.6" y2="458.6"/><path d="    M438.4,467.1v-29.7c0-4.8-3.9-8.7-8.7-8.7h-41.5c-4.8,0-8.7,3.9-8.7,8.7v29.7H438.4z" fill="none" stroke="#000000" stroke-linecap="round" stroke-linejoin="round" stroke-miterlimit="10" stroke-width="6.3595"/><g><line fill="none" stroke="#000000" stroke-linecap="round" stroke-linejoin="round" stroke-miterlimit="10" stroke-width="6.3595" x1="394.7" x2="394.7" y1="467.1" y2="447.9"/><line fill="none" stroke="#000000" stroke-linecap="round" stroke-linejoin="round" stroke-miterlimit="10" stroke-width="6.3595" x1="423.1" x2="423.1" y1="467.1" y2="447.9"/></g></g><g><path d="M409.2,257h-0.5c-8.7,0-15.8-7.1-15.8-15.8v-3.7c0-8.7,7.1-15.8,15.8-15.8h0.5c8.7,0,15.8,7.1,15.8,15.8    v3.7C424.9,249.9,417.9,257,409.2,257z" fill="#EFAFBF"/><path d="    M412.8,228.9c1.5,0.6,2.8,1.6,3.7,2.9" fill="none" opacity="0.6" stroke="#FFFFFF" stroke-linecap="round" stroke-linejoin="round" stroke-miterlimit="10" stroke-width="6.3595"/><path d="    M409.2,257h-0.5c-8.7,0-15.8-7.1-15.8-15.8v-3.7c0-8.7,7.1-15.8,15.8-15.8h0.5c8.7,0,15.8,7.1,15.8,15.8v3.7    C424.9,249.9,417.9,257,409.2,257z" fill="none" stroke="#000000" stroke-linecap="round" stroke-linejoin="round" stroke-miterlimit="10" stroke-width="6.3595"/><path d="M438.4,295.4v-29.7c0-4.8-3.9-8.7-8.7-8.7h-41.5c-4.8,0-8.7,3.9-8.7,8.7v29.7H438.4z" fill="#EFAFBF"/><path d="    M420.4,263.4h9.3c1.3,0,2.3,1,2.3,2.3v2.4" fill="none" opacity="0.6" stroke="#FFFFFF" stroke-linecap="round" stroke-linejoin="round" stroke-miterlimit="10" stroke-width="6.3595"/><line fill="none" opacity="0.1" stroke="#000000" stroke-linecap="round" stroke-linejoin="round" stroke-miterlimit="10" stroke-width="10.5991" x1="410.8" x2="392.2" y1="286.9" y2="286.9"/><path d="    M438.4,295.4v-29.7c0-4.8-3.9-8.7-8.7-8.7h-41.5c-4.8,0-8.7,3.9-8.7,8.7v29.7H438.4z" fill="none" stroke="#000000" stroke-linecap="round" stroke-linejoin="round" stroke-miterlimit="10" stroke-width="6.3595"/><g><line fill="none" stroke="#000000" stroke-linecap="round" stroke-linejoin="round" stroke-miterlimit="10" stroke-width="6.3595" x1="394.7" x2="394.7" y1="295.4" y2="276.2"/><line fill="none" stroke="#000000" stroke-linecap="round" stroke-linejoin="round" stroke-miterlimit="10" stroke-width="6.3595" x1="423.1" x2="423.1" y1="295.4" y2="276.2"/></g></g></g></svg>