<svg width="100" height="100" viewBox="0 0 100 100" fill="none" xmlns="http://www.w3.org/2000/svg">
<path d="M49.15 95.868C74.503 95.868 95.128 75.243 95.128 49.89C95.128 24.537 74.503 3.91302 49.15 3.91302C23.797 3.91302 3.173 24.539 3.173 49.891C3.173 75.243 23.798 95.868 49.15 95.868ZM49.15 5.91302C73.399 5.91302 93.128 25.641 93.128 49.891C93.128 74.141 73.399 93.868 49.15 93.868C24.901 93.868 5.173 74.14 5.173 49.891C5.173 25.642 24.901 5.91302 49.15 5.91302Z" fill="white"/>
<path d="M26.237 64.711C30.628 67.528 35.706 69.018 40.923 69.018C50.651 69.018 56.913 64.603 60.453 60.9C65.48 55.642 68.342 48.261 68.169 41.058C69.89 39.745 71.374 38.162 72.587 36.345C72.834 35.975 72.807 35.486 72.52 35.146C72.234 34.806 71.758 34.696 71.35 34.876C70.883 35.083 70.408 35.27 69.925 35.435C70.596 34.536 71.118 33.527 71.466 32.443C71.593 32.047 71.462 31.615 71.137 31.356C70.813 31.097 70.363 31.065 70.004 31.277C68.433 32.208 66.744 32.882 64.978 33.286C63.084 31.485 60.542 30.463 57.918 30.463C54.781 30.463 51.862 31.873 49.911 34.331C48.235 36.441 47.472 39.069 47.735 41.703C41.093 41.037 34.934 37.735 30.683 32.521C30.475 32.267 30.156 32.133 29.829 32.156C29.502 32.182 29.208 32.366 29.043 32.65C26.982 36.186 27.287 40.495 29.518 43.677C29.366 43.604 29.216 43.527 29.069 43.446C28.763 43.276 28.39 43.278 28.087 43.452C27.783 43.626 27.593 43.946 27.584 44.296C27.505 47.616 29.144 50.717 31.729 52.646C31.478 52.668 31.241 52.785 31.069 52.979C30.836 53.243 30.758 53.611 30.866 53.947C31.925 57.248 34.552 59.725 37.773 60.653C34.524 62.538 30.711 63.329 26.895 62.878C26.444 62.828 25.994 63.095 25.836 63.534C25.678 63.973 25.846 64.459 26.237 64.711ZM41.056 60.836C41.39 60.575 41.523 60.133 41.388 59.732C41.253 59.331 40.881 59.057 40.458 59.049C37.478 58.995 34.808 57.343 33.404 54.805C34.37 54.823 35.323 54.699 36.249 54.446C36.696 54.323 37.001 53.91 36.984 53.446C36.968 52.983 36.636 52.592 36.181 52.5C32.856 51.833 30.288 49.13 29.705 45.909C30.679 46.247 31.702 46.438 32.731 46.47C33.221 46.487 33.579 46.2 33.714 45.776C33.851 45.351 33.689 44.887 33.318 44.639C30.116 42.499 28.874 38.464 30.154 34.965C34.982 40.238 41.721 43.433 48.877 43.791C49.185 43.808 49.493 43.674 49.694 43.434C49.895 43.194 49.971 42.872 49.9 42.566C49.328 40.104 49.902 37.555 51.476 35.572C53.045 33.594 55.393 32.461 57.916 32.461C60.182 32.461 62.371 33.408 63.921 35.06C64.157 35.311 64.504 35.421 64.844 35.357C66 35.129 67.127 34.799 68.218 34.369C67.596 35.168 66.826 35.853 65.94 36.385C65.536 36.628 65.356 37.12 65.508 37.566C65.661 38.013 66.111 38.291 66.573 38.235C67.326 38.145 68.07 38.012 68.802 37.837C68.113 38.537 67.365 39.177 66.564 39.755C66.291 39.952 66.135 40.274 66.15 40.611C66.458 47.447 63.787 54.515 59.005 59.516C55.734 62.937 49.942 67.016 40.92 67.016C37.426 67.016 34 66.295 30.833 64.91C34.542 64.556 38.115 63.141 41.056 60.836Z" fill="white"/>
</svg>
