<svg width="40" height="40" viewBox="0 0 40 40" fill="none" xmlns="http://www.w3.org/2000/svg">
<path d="M19.9998 40C31.0283 40 40 31.0279 40 20C39.9992 8.97169 31.0271 -1.41321e-06 19.999 -1.41321e-06C8.97135 -1.41321e-06 -7.14636e-07 8.97169 -7.14636e-07 20C-7.14636e-07 31.0279 8.97174 40 19.9998 40ZM19.999 1.59582C30.1465 1.59582 38.4033 9.85139 38.4041 20C38.4041 30.1482 30.1481 38.4042 19.9998 38.4042C9.85188 38.4042 1.5959 30.1482 1.5959 20C1.5959 9.85139 9.85148 1.59582 19.999 1.59582ZM14.2119 18.0379L19.2011 13.7388L19.2011 28.0022C19.2011 28.4427 19.5585 28.8001 19.999 28.8001C20.4395 28.8001 20.797 28.4427 20.797 28.0022L20.797 13.7388L25.7869 18.0379C26.1209 18.3256 26.6252 18.2881 26.9124 17.9542C27.1997 17.6202 27.1626 17.116 26.8287 16.8287L19.999 10.9449L13.1702 16.8287C12.8362 17.1168 12.7987 17.6202 13.0868 17.9542C13.374 18.2881 13.8779 18.3256 14.2119 18.0379Z" fill="#FEFEFE"/>
</svg>
